<svg width="344" height="282" viewBox="0 0 344 282" fill="none" xmlns="http://www.w3.org/2000/svg">
<path d="M344 251.551L343.968 250.888L343.098 250.846C343.063 250.844 340.19 250.614 339.353 245.186V5.76993L338.537 5.57651C336.462 5.08386 331.077 3.28409 331.077 0.885773V0.00354004H12.9271V0.885773C12.9271 3.28409 7.5402 5.08386 5.46316 5.57651L4.64685 5.76993V245.186C3.81195 250.614 0.940897 250.844 0.92974 250.846H0V251.551C0 258.108 1.97664 263.283 4.64685 267.285V275.242L5.46316 275.434C7.5402 275.924 12.9271 277.719 12.9271 280.125V281.007H331.077V280.125C331.077 277.727 336.462 275.927 338.537 275.434L339.353 275.241V267.285C342.023 263.283 344 258.108 344 251.551ZM339.894 250.785C340.696 251.572 341.523 251.938 342.135 252.109C342.053 256.692 340.956 260.546 339.353 263.766V250.167C339.524 250.385 339.701 250.596 339.894 250.785ZM6.9712 15.2389C7.27616 14.7561 7.80052 13.9614 8.54059 12.9803V244.527C8.54059 249.317 8.00693 254.747 6.9712 260.713V15.2389ZM6.9712 265.657C8.62986 257.717 9.47033 250.621 9.47033 244.527V11.7946C12.5478 8.02704 18.0258 2.78296 25.2443 1.76804H318.754C325.969 2.78296 331.45 8.03128 334.53 11.8003V244.527C334.53 250.621 335.37 257.717 337.029 265.657V267.587C335.181 270.121 333.068 272.121 331.099 273.639C326.74 276.997 322.339 278.685 320.691 279.243H23.3104C20.8912 278.418 12.5143 275.125 6.9712 267.567V265.657ZM337.029 260.713C335.993 254.747 335.459 249.317 335.459 244.527V12.9846C336.199 13.9642 336.724 14.7589 337.029 15.2417V260.713ZM337.029 7.04459V12.1884C334.665 9.04059 330.294 4.23691 324.223 1.76804H328.884C329.782 4.71262 334.98 6.46161 337.029 7.04459ZM15.1194 1.76804H19.7774C13.7062 4.23691 9.33274 9.04059 6.9712 12.1884V7.04459C9.02221 6.46161 14.2213 4.71262 15.1194 1.76804ZM1.86507 252.109C2.47684 251.938 3.30431 251.572 4.10575 250.785C4.29727 250.596 4.47578 250.385 4.64685 250.167V263.773C3.01795 260.519 1.94503 256.661 1.86507 252.109ZM6.9712 273.966V270.307C8.49598 272.051 10.1081 273.506 11.6422 274.68C14.4091 276.803 17.1574 278.274 19.2995 279.243H15.1194C14.2213 276.298 9.02221 274.549 6.9712 273.966ZM328.884 279.243H324.7C326.843 278.274 329.591 276.803 332.358 274.68C333.89 273.506 335.504 272.051 337.029 270.307V273.966C334.98 274.549 329.782 276.298 328.884 279.243Z" fill="black"/>
</svg>
