<svg width="860" height="226" viewBox="0 0 860 226" fill="none" xmlns="http://www.w3.org/2000/svg">
<path d="M852.028 205.829H8.02808V19.8288H852.028V205.829Z" stroke="black" stroke-width="3.63636" stroke-miterlimit="0"/>
<path d="M2.00287 1.00001L2 225C5.00978 217.307 8.0253 214.099 8.0253 214.099L8.02817 11.8976C8.02817 11.8976 5.01265 8.69926 2.00287 1.00001Z" stroke="black" stroke-width="3.63636" stroke-miterlimit="0"/>
<path d="M8.03076 44.6097C8.03076 44.6097 10.895 13.1081 30.5819 13.1081H89.6375C89.6375 13.1081 108.874 20.562 144.667 20.562M8.02808 181.39C8.02808 181.39 10.8923 212.892 30.5793 212.892H89.6348C89.6348 212.892 108.871 205.438 144.664 205.438" stroke="black" stroke-width="3.63636" stroke-miterlimit="0"/>
<path d="M857.998 1.00001L858 225C855.492 217.307 852.979 214.099 852.979 214.099L852.977 11.8976C852.977 11.8976 855.489 8.69926 857.998 1.00001Z" stroke="black" stroke-width="3.63636" stroke-miterlimit="0"/>
<path d="M851.636 44.5016C851.636 44.5016 848.772 13 829.085 13H770.029C770.029 13 750.793 20.4539 715 20.4539M851.639 181.282C851.639 181.282 848.774 212.784 829.087 212.784H770.032C770.032 212.784 750.796 205.33 715.003 205.33" stroke="black" stroke-width="3.63636" stroke-miterlimit="0"/>
</svg>
