<svg width="144" height="140" viewBox="0 0 144 140" fill="none" xmlns="http://www.w3.org/2000/svg">
<path d="M8.03421 20.0765C6.30085 16.5985 5.4788 9.22537 5.4788 9.22537L5.54099 8.59973L6.6578 8.31271C9.27541 7.63997 16.7307 4.93335 16.7307 1.44412V0H127.27V1.44412C127.27 4.93335 134.723 7.63997 137.341 8.31271L138.455 8.59973L138.52 9.22537C138.52 9.22537 137.698 16.5985 135.964 20.0765L135.185 10.7592C132.3 9.88242 125.288 7.32379 123.99 2.89273H20.0108C18.7101 7.32379 11.6983 9.88242 8.8157 10.7592L8.03421 20.0765ZM4.12943 117.104L4.12673 117.109C4.27545 117.109 4.45393 117.118 4.61618 117.127C4.75679 115.483 4.90281 113.626 5.04073 111.588C3.01262 108.971 1.44693 106.027 1.11702 102.914C0.708697 99.0483 2.26898 95.4672 5.71135 92.2538C5.71135 91.6887 5.70324 91.1101 5.69783 90.5338C5.69783 90.5338 3.24518 52.5716 0.992631 46.5059L0.703289 45.73L1.54157 45.3017C1.57943 45.2815 3.53182 44.2522 5.44905 42.5502C5.44905 42.5502 7.46634 41.0545 8.21268 39.2516C9.04015 37.7783 9.45929 36.1032 8.95361 34.2958C8.86979 34.1343 7.92875 32.2978 6.97148 29.9275L6.51448 34.1343C6.99041 35.2937 7.39603 36.5337 7.77731 37.803C7.2446 38.7067 6.24136 40.1351 4.99746 40.7876C4.47015 38.6596 3.86443 36.6122 3.09645 34.7802L2.96936 34.4886L5.16512 14.1856C5.13807 17.2197 7.63129 23.8147 7.63129 23.8147C8.45605 27.9632 11.2602 33.4325 11.3522 33.641C12.3338 37.0899 10.9033 40.0521 8.95361 42.3147C11.8822 55.9734 9.02933 104.697 8.66157 110.364C7.30139 108.933 6.0683 106.619 5.40038 105.242C5.53829 102.291 5.63564 99.0999 5.68431 95.7946C4.08617 97.9675 3.38579 100.286 3.64539 102.724C3.94014 105.545 5.43553 108.265 7.36899 110.7C7.46634 110.819 7.55287 110.927 7.64211 111.034C7.90441 111.353 8.17482 111.664 8.44794 111.976C8.51014 112.043 8.54258 112.079 8.54258 112.079V112.084C12.8097 116.829 18.3397 120.181 18.7588 120.43C20.8572 121.347 22.9394 122.417 24.954 123.538H24.9864L25.4326 123.805C26.8388 124.596 28.2017 125.417 29.5132 126.242L29.8323 126.433H29.8133C32.3336 128.027 34.6375 129.622 36.5331 131.008C39.002 131.03 41.4303 131.171 43.5693 131.339C41.3384 129.862 39.4265 128.216 37.9014 126.433H33.4747H31.836L27.4175 123.538H31.5332C30.6029 121.253 30.1189 119.21 29.9675 117.403C28.5045 119.053 25.384 121.542 20.7085 120.053C21.7685 120.304 26.1222 120.831 30.0324 114.028L30.0432 114.064C30.8247 108.668 34.5239 106.22 34.5239 106.22C30.6841 112.478 31.5737 118.033 32.8203 121.387C32.842 121.408 33.6235 122.307 35.1946 122.327C34.2427 120.338 33.7046 118.25 33.7046 116.082C33.7046 103.477 50.8867 93.2292 71.9979 93.2292C93.1145 93.2292 110.294 103.477 110.294 116.082C110.294 118.25 109.756 120.338 108.807 122.327C110.378 122.307 111.157 121.408 111.178 121.387C112.425 118.033 113.317 112.478 109.477 106.22C109.477 106.22 113.176 108.668 113.955 114.064L113.966 114.028C117.876 120.831 122.23 120.304 123.293 120.053C118.617 121.542 115.494 119.053 114.031 117.403C113.882 119.21 113.398 121.253 112.465 123.538H116.581L112.162 126.433H110.478H106.1C104.572 128.216 102.66 129.862 100.432 131.339C102.568 131.171 104.996 131.03 107.468 131.008C109.364 129.622 111.665 128.027 114.188 126.433H114.169L114.485 126.242C115.8 125.417 117.157 124.596 118.569 123.805L119.015 123.538H119.047C121.062 122.417 123.141 121.347 125.242 120.43C125.659 120.181 131.189 116.829 135.456 112.084V112.079C135.456 112.079 135.491 112.043 135.551 111.976C135.826 111.664 136.094 111.353 136.356 111.034C136.446 110.927 136.535 110.819 136.629 110.7C138.566 108.265 140.056 105.545 140.353 102.724C140.613 100.286 139.915 97.9675 138.317 95.7946C138.363 99.0999 138.457 102.291 138.598 105.242C137.93 106.619 136.697 108.933 135.337 110.364C134.966 104.697 132.116 55.9734 135.048 42.3147C133.098 40.0521 131.667 37.0899 132.649 33.641C132.736 33.4325 135.542 27.9632 136.37 23.8147C136.37 23.8147 138.863 17.2197 138.831 14.1856L141.029 34.4886L140.905 34.7802C140.137 36.6122 139.531 38.6596 139.004 40.7876C137.76 40.1351 136.757 38.7067 136.221 37.803C136.602 36.5337 137.008 35.2937 137.484 34.1343L137.027 29.9275C136.072 32.2978 135.131 34.1343 135.048 34.2958C134.539 36.1032 134.958 37.7783 135.786 39.2516C136.535 41.0545 138.549 42.5502 138.549 42.5502C140.469 44.2522 142.419 45.2815 142.46 45.3017L143.298 45.73L143.006 46.5059C140.756 52.5716 138.303 90.5338 138.303 90.5338C138.298 91.1101 138.29 91.6887 138.29 92.2538C141.729 95.4672 143.292 99.0483 142.881 102.914C142.549 106.027 140.986 108.971 138.96 111.588C139.096 113.626 139.242 115.483 139.38 117.127C139.547 117.118 139.723 117.109 139.874 117.109L139.872 117.104C142.516 116.923 144.834 118.14 143.709 119.674C142.587 121.213 140.664 121.379 140.664 121.379C140.664 121.379 141.391 120.995 141.989 120.116C142.287 119.674 142.054 119.47 141.746 119.369C141.524 119.338 141.308 119.306 141.067 119.289H141.062C140.575 119.255 140.064 119.246 139.572 119.25C139.888 122.659 140.142 124.717 140.158 124.83L140.364 126.433H121.749H118.468C115.867 127.974 113.417 129.59 111.297 131.068C118.982 131.012 123.806 134.187 123.806 134.187L118.912 135.797L118.915 135.795C116.551 136.625 112.806 137.807 109.41 138.363C109.434 138.367 109.464 138.374 109.464 138.374C109.255 138.405 109.077 138.428 108.874 138.457C108.725 138.479 108.582 138.504 108.439 138.52C91.273 140.984 89.4801 139.627 89.4801 139.627C96.8651 139.627 101.522 135.634 101.522 135.634L101.946 135.277C102.122 135.136 103.047 134.364 104.526 133.214C103.433 133.263 102.363 133.326 101.324 133.398H101.311C101.046 133.418 100.797 133.441 100.537 133.461C100.024 133.51 99.2799 133.611 98.4416 133.79C97.9549 133.891 97.4276 134.026 96.8868 134.187C96.8029 134.212 96.7218 134.237 96.638 134.266C96.0782 134.443 95.5023 134.656 94.9452 134.914C94.8776 134.943 94.8181 134.983 94.7532 135.017C94.2827 135.241 93.8338 135.515 93.393 135.811C93.2578 135.905 93.1253 135.999 92.9928 136.098C92.5088 136.47 92.0464 136.876 91.6624 137.36L77.636 138.688L77.7469 138.65C75.8675 138.822 73.9557 138.939 71.9979 138.939C70.0455 138.939 68.1337 138.822 66.2516 138.65L66.3625 138.688L52.3361 137.36C51.944 136.871 51.4789 136.461 50.9867 136.089C50.8596 135.99 50.7271 135.898 50.5946 135.802C50.143 135.499 49.6725 135.219 49.1912 134.983C49.1344 134.959 49.0857 134.927 49.0316 134.903C48.4665 134.645 47.8959 134.434 47.3389 134.257C47.2307 134.223 47.1279 134.192 47.0279 134.163C46.4952 134.008 45.9679 133.869 45.4919 133.772C44.6753 133.609 43.9641 133.51 43.4638 133.461C43.2042 133.441 42.9527 133.418 42.6904 133.398H42.6769C41.6385 133.326 40.565 133.263 39.4752 133.214C40.9544 134.364 41.8792 135.136 42.0523 135.277L42.4768 135.634C42.4768 135.634 47.1333 139.627 54.5156 139.627C54.5156 139.627 52.7255 140.984 35.5623 138.52C35.4163 138.504 35.273 138.479 35.127 138.457C34.9215 138.428 34.743 138.405 34.5375 138.374C34.5375 138.374 34.5672 138.367 34.5888 138.363C31.1897 137.807 27.4472 136.625 25.0865 135.795L25.0892 135.797L20.1947 134.187C20.1947 134.187 25.0162 131.012 32.7041 131.068C30.584 129.59 28.1314 127.974 25.5327 126.433H22.2066H3.63457L3.84009 124.83C3.85631 124.717 4.11321 122.659 4.42959 119.25C3.93203 119.246 3.42636 119.255 2.93691 119.289H2.9315C2.69083 119.306 2.4745 119.338 2.25276 119.369C1.94719 119.47 1.70923 119.674 2.00668 120.116C2.6043 120.995 3.33171 121.379 3.33171 121.379C3.33171 121.379 1.41448 121.213 0.29226 119.674C-0.835366 118.14 1.48208 116.923 4.12943 117.104ZM136.494 72.3723C137.449 64.026 138.725 51.4325 140.321 46.6382C139.747 46.2996 138.936 45.7771 138.049 45.1043C136.654 52.9192 136.405 65.7684 136.494 72.3723ZM132.676 117.907C133.766 117.663 134.831 117.501 135.878 117.398C135.818 116.714 135.753 115.972 135.694 115.212C134.683 116.194 133.66 117.104 132.676 117.907ZM123.758 123.538H136.497C136.383 122.565 136.232 121.172 136.07 119.466C132.257 119.845 127.957 121.448 123.758 123.538ZM104.334 136.282C104.375 136.309 104.418 136.333 104.466 136.356C106.343 137.233 112.525 135.696 117.457 134.019C115.126 133.367 111.851 133.131 108.431 133.127C106.516 134.542 105.08 135.674 104.334 136.282ZM71.9979 135.782C84.3639 135.782 95.1994 132.032 101.289 126.433C101.781 125.98 102.244 125.516 102.676 125.045C102.722 124.993 102.76 124.939 102.806 124.89C103.196 124.451 103.569 124.004 103.901 123.542C105.559 121.239 106.489 118.721 106.489 116.082C106.489 105.222 91.0161 96.3821 71.9979 96.3821C52.9824 96.3821 37.5093 105.222 37.5093 116.082C37.5093 118.721 38.4395 121.239 40.0972 123.542C40.4298 124.004 40.8002 124.451 41.1978 124.895C41.2383 124.944 41.2789 124.993 41.3249 125.045C41.7575 125.516 42.2199 125.98 42.7067 126.433C48.7964 132.032 59.6346 135.782 71.9979 135.782ZM35.5704 133.127C32.1497 133.131 28.875 133.367 26.544 134.019C31.4764 135.696 37.6526 137.233 39.532 136.356C39.5807 136.333 39.6267 136.309 39.6645 136.282C38.9182 135.674 37.485 134.542 35.5704 133.127ZM8.11804 117.398C9.16994 117.501 10.23 117.663 11.3251 117.907C10.3408 117.104 9.31597 116.194 8.30462 115.212C8.24513 115.972 8.18293 116.714 8.11804 117.398ZM7.5042 123.538H20.2434C16.0439 121.448 11.7416 119.845 7.93145 119.466C7.76379 121.172 7.61777 122.565 7.5042 123.538ZM7.5069 72.3723C7.59614 65.7684 7.34195 52.9192 5.94932 45.1043C5.06236 45.7771 4.25112 46.2996 3.68054 46.6382C5.27328 51.4325 6.54963 64.026 7.5069 72.3723Z" fill="black"/>
</svg>
