<svg width="176" height="1048" viewBox="0 0 176 1048" fill="none" xmlns="http://www.w3.org/2000/svg">
<g filter="url(#filter0_d_702_62)">
<mask id="path-1-inside-1_702_62" fill="white">
<path d="M25.8622 18.7694C28.7783 17.998 31.9253 17.5067 35.3673 17.5067H47.7272C49.3717 18.8406 51.1136 20.0598 52.9083 21.2077C46.4389 19.5731 35.7513 17.5503 25.8622 18.7694ZM6.41801 30.8253C5.48586 31.84 4.6845 32.7996 4 33.6767V54.962L7.26667 44.9335C5.20205 39.3499 5.72238 34.051 6.41801 30.8253ZM167.348 44.7498C169.974 37.8047 168.347 31.1282 167.631 28.8461C165.169 26.4698 162.089 24.0155 158.341 21.9929C144.806 16.5906 124.975 21.7817 119.255 23.4921C110.025 28.4581 99.265 31.1443 88.0014 31.1443C76.7322 31.1443 65.9694 28.4581 56.7398 23.4898C51.0051 21.7794 31.1351 16.5768 17.6065 22.0157C13.8835 24.0293 10.8227 26.4675 8.37133 28.8323C7.66179 31.103 6.02289 37.8001 8.65237 44.7498L8.71636 44.9106L8.66071 45.069L4 59.3748V980.631L8.71358 995.09L8.64959 995.249C6.02289 1002.2 7.65066 1008.87 8.36577 1011.15C10.8283 1013.53 13.9085 1015.98 17.6566 1018.01C31.1908 1023.41 51.0217 1018.22 56.7426 1016.51C65.9722 1011.54 76.7322 1008.86 87.9958 1008.86C99.265 1008.86 110.028 1011.54 119.257 1016.51C124.992 1018.22 144.865 1023.42 158.391 1017.99C162.114 1015.97 165.174 1013.53 167.626 1011.17C168.335 1008.9 169.974 1002.2 167.345 995.249L167.281 995.09L167.337 994.932L172 980.626V59.3701L167.284 44.9106L167.348 44.7498ZM142.416 9.4458H151.229L149.222 7.2417H126.74C126.086 7.22339 125.46 7.15894 124.795 7.15894V7.2417H111.018C111.989 7.93274 112.905 8.67432 113.779 9.4458H137.027C154.284 12.5957 166.524 21.6208 172 26.4262V30.6369C166.479 24.3622 156.123 15.7848 140.633 15.7848H106.077C105.701 15.2291 105.008 14.8365 104.185 14.8365C102.977 14.8365 101.992 15.6493 101.992 16.6457C101.992 17.6444 102.977 18.4549 104.185 18.4549C105.008 18.4549 105.701 18.0623 106.077 17.5067H125.165C114.958 25.1773 101.883 29.4224 88.0014 29.4224C74.1194 29.4224 61.0472 25.1773 50.8381 17.5067H69.9234C70.299 18.0623 70.9919 18.4549 71.8155 18.4549C73.0231 18.4549 74.0081 17.6444 74.0081 16.6457C74.0081 15.6493 73.0231 14.8365 71.8155 14.8365C70.9919 14.8365 70.299 15.2291 69.9234 15.7848H35.3673C19.8743 15.7848 9.51495 24.3668 4 30.6392V26.4285C9.46765 21.6232 21.6912 12.6027 38.9456 9.45044H62.2158C63.0895 8.67432 64.005 7.93506 64.9733 7.2417H51.2054V7.15894C50.5432 7.15894 49.9143 7.22339 49.2604 7.2417H26.7749L24.7659 9.45044H33.5726C19.5793 13.0917 9.3786 20.2503 4 24.7824V18.9715C4 18.9715 14.1451 13.9894 16.7328 9.45044H22.1587L25.7315 5.51978H46.0243C53.8822 4.70007 63.7935 3.18481 68.482 0.505493C68.482 0.505493 71.8155 -1.1637 71.8155 1.56384C71.8155 3.23071 64.1942 4.65881 58.2813 5.51978H65.8581C66.1419 5.29248 66.5204 5.15002 66.9461 5.15002C67.2772 5.15002 67.5638 5.25342 67.8198 5.40027C73.5407 2.08276 80.4886 0.119873 87.9958 0.119873C95.5031 0.119873 102.454 2.08276 108.177 5.40027C108.431 5.25342 108.72 5.15002 109.051 5.15002C109.477 5.15002 109.858 5.29248 110.139 5.51978H117.716C111.803 4.65881 104.182 3.23071 104.182 1.56384C104.182 -1.1637 107.515 0.505493 107.515 0.505493C112.204 3.18481 122.115 4.70007 129.973 5.51978H150.266L153.833 9.4458H159.264C161.852 13.9894 172 18.9669 172 18.9669V24.7802C166.616 20.2457 156.41 13.087 142.416 9.4458ZM109.51 7.65723C109.366 7.69629 109.215 7.73291 109.051 7.73291C108.189 7.73291 107.487 7.15442 107.487 6.44275C107.487 6.43127 107.496 6.422 107.496 6.41052C101.975 3.1825 95.2582 1.26782 87.9958 1.26782C80.7362 1.26782 74.0192 3.1825 68.5015 6.4082C68.5015 6.41968 68.5099 6.43127 68.5099 6.44275C68.5099 7.15442 67.8087 7.73291 66.9461 7.73291C66.7819 7.73291 66.6317 7.69629 66.4842 7.65723C65.6522 8.22205 64.8564 8.82129 64.0912 9.44812H66.6261C72.3052 5.25806 79.7763 2.68896 87.9958 2.68896C96.2154 2.68896 103.689 5.25806 109.368 9.44812H111.9C111.138 8.82129 110.342 8.22205 109.51 7.65723ZM168.733 44.9335L172 54.9529V33.6767C171.313 32.8042 170.517 31.8446 169.585 30.8344C170.278 34.0624 170.798 39.3568 168.733 44.9335ZM140.633 17.5067H128.264C126.623 18.843 124.878 20.0598 123.083 21.21C129.553 19.5776 140.24 17.5549 150.135 18.7694C147.219 18.0003 144.075 17.5067 140.633 17.5067ZM140.63 1022.49C144.072 1022.49 147.219 1022 150.135 1021.23C140.246 1022.45 129.561 1020.43 123.089 1018.79C124.884 1019.94 126.625 1021.16 128.27 1022.49H140.63ZM169.579 1009.18C170.511 1008.16 171.313 1007.2 172 1006.32V985.039L168.731 995.067C170.795 1000.65 170.275 1005.95 169.579 1009.18ZM172 1009.36V1013.57C166.53 1018.38 154.306 1027.4 137.052 1030.55H113.781C112.908 1031.33 111.992 1032.06 111.024 1032.76H124.792V1032.84C125.454 1032.84 126.086 1032.78 126.737 1032.76H149.222L151.231 1030.55H142.427C156.418 1026.91 166.619 1019.75 172 1015.22V1021.03C172 1021.03 161.852 1026.01 159.264 1030.55H153.839L150.266 1034.48H129.973C122.115 1035.3 112.204 1036.82 107.515 1039.5C107.515 1039.5 104.182 1041.16 104.182 1038.44C104.182 1036.77 111.803 1035.34 117.716 1034.48H110.139C109.858 1034.71 109.477 1034.85 109.051 1034.85C108.72 1034.85 108.433 1034.75 108.177 1034.6C102.457 1037.92 95.5086 1039.88 88.0014 1039.88C80.4942 1039.88 73.5434 1037.92 67.8198 1034.6C67.5666 1034.75 67.2772 1034.85 66.9461 1034.85C66.5204 1034.85 66.1419 1034.71 65.8581 1034.48H58.2813C64.1942 1035.34 71.8155 1036.77 71.8155 1038.44C71.8155 1041.16 68.482 1039.5 68.482 1039.5C63.7935 1036.82 53.8822 1035.3 46.0243 1034.48H25.7315L22.1643 1030.55H16.7328C14.1451 1026.01 4 1021.03 4 1021.03V1015.22C9.38139 1019.76 19.5877 1026.91 33.5809 1030.55H24.7687L26.7749 1032.76H49.2576C49.9143 1032.78 50.5376 1032.84 51.2026 1032.84V1032.76H64.9788C64.0077 1032.07 63.0923 1031.33 62.2186 1030.55H38.9707C21.7135 1027.41 9.47321 1018.38 4 1013.57V1009.36C9.51773 1015.64 19.8743 1024.21 35.3645 1024.21H69.9206C70.2962 1024.77 70.9891 1025.16 71.8127 1025.16C73.0203 1025.16 74.0053 1024.35 74.0053 1023.35C74.0053 1022.36 73.0203 1021.54 71.8127 1021.54C70.9891 1021.54 70.2962 1021.94 69.9206 1022.49H50.8353C61.0416 1014.82 74.1139 1010.58 87.9958 1010.58C101.878 1010.58 114.953 1014.82 125.162 1022.49H106.074C105.698 1021.94 105.005 1021.54 104.182 1021.54C102.974 1021.54 101.989 1022.36 101.989 1023.35C101.989 1024.35 102.974 1025.16 104.182 1025.16C105.005 1025.16 105.698 1024.77 106.074 1024.21H140.63C156.123 1024.21 166.482 1015.63 172 1009.36ZM111.906 1030.55H109.371C103.692 1034.74 96.2209 1037.31 88.0014 1037.31C79.7818 1037.31 72.308 1034.74 66.6289 1030.55H64.0968C64.8592 1031.18 65.655 1031.78 66.487 1032.34C66.6317 1032.3 66.7819 1032.27 66.9461 1032.27C67.8087 1032.27 68.5099 1032.84 68.5099 1033.56C68.5099 1033.56 68.5015 1033.58 68.5015 1033.59C74.022 1036.82 80.739 1038.73 88.0014 1038.73C95.261 1038.73 101.978 1036.82 107.496 1033.59C107.496 1033.58 107.487 1033.57 107.487 1033.57C107.487 1032.84 108.189 1032.27 109.051 1032.27C109.215 1032.27 109.366 1032.3 109.513 1032.34C110.345 1031.78 111.141 1031.18 111.906 1030.55ZM7.26389 995.067L4 985.048V1006.32C4.6845 1007.19 5.4803 1008.15 6.41244 1009.17C5.7196 1005.94 5.19926 1000.64 7.26389 995.067ZM47.7328 1022.49C49.3745 1021.16 51.1191 1019.94 52.9139 1018.79C46.4445 1020.42 35.7569 1022.45 25.8622 1021.23C28.7783 1022 31.9226 1022.49 35.3645 1022.49H47.7328Z"/>
</mask>
<path d="M25.8622 18.7694C28.7783 17.998 31.9253 17.5067 35.3673 17.5067H47.7272C49.3717 18.8406 51.1136 20.0598 52.9083 21.2077C46.4389 19.5731 35.7513 17.5503 25.8622 18.7694ZM6.41801 30.8253C5.48586 31.84 4.6845 32.7996 4 33.6767V54.962L7.26667 44.9335C5.20205 39.3499 5.72238 34.051 6.41801 30.8253ZM167.348 44.7498C169.974 37.8047 168.347 31.1282 167.631 28.8461C165.169 26.4698 162.089 24.0155 158.341 21.9929C144.806 16.5906 124.975 21.7817 119.255 23.4921C110.025 28.4581 99.265 31.1443 88.0014 31.1443C76.7322 31.1443 65.9694 28.4581 56.7398 23.4898C51.0051 21.7794 31.1351 16.5768 17.6065 22.0157C13.8835 24.0293 10.8227 26.4675 8.37133 28.8323C7.66179 31.103 6.02289 37.8001 8.65237 44.7498L8.71636 44.9106L8.66071 45.069L4 59.3748V980.631L8.71358 995.09L8.64959 995.249C6.02289 1002.2 7.65066 1008.87 8.36577 1011.15C10.8283 1013.53 13.9085 1015.98 17.6566 1018.01C31.1908 1023.41 51.0217 1018.22 56.7426 1016.51C65.9722 1011.54 76.7322 1008.86 87.9958 1008.86C99.265 1008.86 110.028 1011.54 119.257 1016.51C124.992 1018.22 144.865 1023.42 158.391 1017.99C162.114 1015.97 165.174 1013.53 167.626 1011.17C168.335 1008.9 169.974 1002.2 167.345 995.249L167.281 995.09L167.337 994.932L172 980.626V59.3701L167.284 44.9106L167.348 44.7498ZM142.416 9.4458H151.229L149.222 7.2417H126.74C126.086 7.22339 125.46 7.15894 124.795 7.15894V7.2417H111.018C111.989 7.93274 112.905 8.67432 113.779 9.4458H137.027C154.284 12.5957 166.524 21.6208 172 26.4262V30.6369C166.479 24.3622 156.123 15.7848 140.633 15.7848H106.077C105.701 15.2291 105.008 14.8365 104.185 14.8365C102.977 14.8365 101.992 15.6493 101.992 16.6457C101.992 17.6444 102.977 18.4549 104.185 18.4549C105.008 18.4549 105.701 18.0623 106.077 17.5067H125.165C114.958 25.1773 101.883 29.4224 88.0014 29.4224C74.1194 29.4224 61.0472 25.1773 50.8381 17.5067H69.9234C70.299 18.0623 70.9919 18.4549 71.8155 18.4549C73.0231 18.4549 74.0081 17.6444 74.0081 16.6457C74.0081 15.6493 73.0231 14.8365 71.8155 14.8365C70.9919 14.8365 70.299 15.2291 69.9234 15.7848H35.3673C19.8743 15.7848 9.51495 24.3668 4 30.6392V26.4285C9.46765 21.6232 21.6912 12.6027 38.9456 9.45044H62.2158C63.0895 8.67432 64.005 7.93506 64.9733 7.2417H51.2054V7.15894C50.5432 7.15894 49.9143 7.22339 49.2604 7.2417H26.7749L24.7659 9.45044H33.5726C19.5793 13.0917 9.3786 20.2503 4 24.7824V18.9715C4 18.9715 14.1451 13.9894 16.7328 9.45044H22.1587L25.7315 5.51978H46.0243C53.8822 4.70007 63.7935 3.18481 68.482 0.505493C68.482 0.505493 71.8155 -1.1637 71.8155 1.56384C71.8155 3.23071 64.1942 4.65881 58.2813 5.51978H65.8581C66.1419 5.29248 66.5204 5.15002 66.9461 5.15002C67.2772 5.15002 67.5638 5.25342 67.8198 5.40027C73.5407 2.08276 80.4886 0.119873 87.9958 0.119873C95.5031 0.119873 102.454 2.08276 108.177 5.40027C108.431 5.25342 108.72 5.15002 109.051 5.15002C109.477 5.15002 109.858 5.29248 110.139 5.51978H117.716C111.803 4.65881 104.182 3.23071 104.182 1.56384C104.182 -1.1637 107.515 0.505493 107.515 0.505493C112.204 3.18481 122.115 4.70007 129.973 5.51978H150.266L153.833 9.4458H159.264C161.852 13.9894 172 18.9669 172 18.9669V24.7802C166.616 20.2457 156.41 13.087 142.416 9.4458ZM109.51 7.65723C109.366 7.69629 109.215 7.73291 109.051 7.73291C108.189 7.73291 107.487 7.15442 107.487 6.44275C107.487 6.43127 107.496 6.422 107.496 6.41052C101.975 3.1825 95.2582 1.26782 87.9958 1.26782C80.7362 1.26782 74.0192 3.1825 68.5015 6.4082C68.5015 6.41968 68.5099 6.43127 68.5099 6.44275C68.5099 7.15442 67.8087 7.73291 66.9461 7.73291C66.7819 7.73291 66.6317 7.69629 66.4842 7.65723C65.6522 8.22205 64.8564 8.82129 64.0912 9.44812H66.6261C72.3052 5.25806 79.7763 2.68896 87.9958 2.68896C96.2154 2.68896 103.689 5.25806 109.368 9.44812H111.9C111.138 8.82129 110.342 8.22205 109.51 7.65723ZM168.733 44.9335L172 54.9529V33.6767C171.313 32.8042 170.517 31.8446 169.585 30.8344C170.278 34.0624 170.798 39.3568 168.733 44.9335ZM140.633 17.5067H128.264C126.623 18.843 124.878 20.0598 123.083 21.21C129.553 19.5776 140.24 17.5549 150.135 18.7694C147.219 18.0003 144.075 17.5067 140.633 17.5067ZM140.63 1022.49C144.072 1022.49 147.219 1022 150.135 1021.23C140.246 1022.45 129.561 1020.43 123.089 1018.79C124.884 1019.94 126.625 1021.16 128.27 1022.49H140.63ZM169.579 1009.18C170.511 1008.16 171.313 1007.2 172 1006.32V985.039L168.731 995.067C170.795 1000.65 170.275 1005.95 169.579 1009.18ZM172 1009.36V1013.57C166.53 1018.38 154.306 1027.4 137.052 1030.55H113.781C112.908 1031.33 111.992 1032.06 111.024 1032.76H124.792V1032.84C125.454 1032.84 126.086 1032.78 126.737 1032.76H149.222L151.231 1030.55H142.427C156.418 1026.91 166.619 1019.75 172 1015.22V1021.03C172 1021.03 161.852 1026.01 159.264 1030.55H153.839L150.266 1034.48H129.973C122.115 1035.3 112.204 1036.82 107.515 1039.5C107.515 1039.5 104.182 1041.16 104.182 1038.44C104.182 1036.77 111.803 1035.34 117.716 1034.48H110.139C109.858 1034.71 109.477 1034.85 109.051 1034.85C108.72 1034.85 108.433 1034.75 108.177 1034.6C102.457 1037.92 95.5086 1039.88 88.0014 1039.88C80.4942 1039.88 73.5434 1037.92 67.8198 1034.6C67.5666 1034.75 67.2772 1034.85 66.9461 1034.85C66.5204 1034.85 66.1419 1034.71 65.8581 1034.48H58.2813C64.1942 1035.34 71.8155 1036.77 71.8155 1038.44C71.8155 1041.16 68.482 1039.5 68.482 1039.5C63.7935 1036.82 53.8822 1035.3 46.0243 1034.48H25.7315L22.1643 1030.55H16.7328C14.1451 1026.01 4 1021.03 4 1021.03V1015.22C9.38139 1019.76 19.5877 1026.91 33.5809 1030.55H24.7687L26.7749 1032.76H49.2576C49.9143 1032.78 50.5376 1032.84 51.2026 1032.84V1032.76H64.9788C64.0077 1032.07 63.0923 1031.33 62.2186 1030.55H38.9707C21.7135 1027.41 9.47321 1018.38 4 1013.57V1009.36C9.51773 1015.64 19.8743 1024.21 35.3645 1024.21H69.9206C70.2962 1024.77 70.9891 1025.16 71.8127 1025.16C73.0203 1025.16 74.0053 1024.35 74.0053 1023.35C74.0053 1022.36 73.0203 1021.54 71.8127 1021.54C70.9891 1021.54 70.2962 1021.94 69.9206 1022.49H50.8353C61.0416 1014.82 74.1139 1010.58 87.9958 1010.58C101.878 1010.58 114.953 1014.82 125.162 1022.49H106.074C105.698 1021.94 105.005 1021.54 104.182 1021.54C102.974 1021.54 101.989 1022.36 101.989 1023.35C101.989 1024.35 102.974 1025.16 104.182 1025.16C105.005 1025.16 105.698 1024.77 106.074 1024.21H140.63C156.123 1024.21 166.482 1015.63 172 1009.36ZM111.906 1030.55H109.371C103.692 1034.74 96.2209 1037.31 88.0014 1037.31C79.7818 1037.31 72.308 1034.74 66.6289 1030.55H64.0968C64.8592 1031.18 65.655 1031.78 66.487 1032.34C66.6317 1032.3 66.7819 1032.27 66.9461 1032.27C67.8087 1032.27 68.5099 1032.84 68.5099 1033.56C68.5099 1033.56 68.5015 1033.58 68.5015 1033.59C74.022 1036.82 80.739 1038.73 88.0014 1038.73C95.261 1038.73 101.978 1036.82 107.496 1033.59C107.496 1033.58 107.487 1033.57 107.487 1033.57C107.487 1032.84 108.189 1032.27 109.051 1032.27C109.215 1032.27 109.366 1032.3 109.513 1032.34C110.345 1031.78 111.141 1031.18 111.906 1030.55ZM7.26389 995.067L4 985.048V1006.32C4.6845 1007.19 5.4803 1008.15 6.41244 1009.17C5.7196 1005.94 5.19926 1000.64 7.26389 995.067ZM47.7328 1022.49C49.3745 1021.16 51.1191 1019.94 52.9139 1018.79C46.4445 1020.42 35.7569 1022.45 25.8622 1021.23C28.7783 1022 31.9226 1022.49 35.3645 1022.49H47.7328Z" stroke="black" stroke-opacity="0.9" stroke-width="4" shape-rendering="crispEdges" mask="url(#path-1-inside-1_702_62)"/>
</g>
<defs>
<filter id="filter0_d_702_62" x="0" y="-7.62939e-05" width="176" height="1048" filterUnits="userSpaceOnUse" color-interpolation-filters="sRGB">
<feFlood flood-opacity="0" result="BackgroundImageFix"/>
<feColorMatrix in="SourceAlpha" type="matrix" values="0 0 0 0 0 0 0 0 0 0 0 0 0 0 0 0 0 0 127 0" result="hardAlpha"/>
<feOffset dy="4"/>
<feGaussianBlur stdDeviation="2"/>
<feComposite in2="hardAlpha" operator="out"/>
<feColorMatrix type="matrix" values="0 0 0 0 0 0 0 0 0 0 0 0 0 0 0 0 0 0 0.25 0"/>
<feBlend mode="normal" in2="BackgroundImageFix" result="effect1_dropShadow_702_62"/>
<feBlend mode="normal" in="SourceGraphic" in2="effect1_dropShadow_702_62" result="shape"/>
</filter>
</defs>
</svg>
