<svg width="104" height="44" viewBox="0 0 104 44" fill="none" xmlns="http://www.w3.org/2000/svg">
<path d="M87.7512 44H16.2488L0 27.1475L0.00237703 16.8447L16.2441 -2.50817e-07H87.7607L103.998 16.8447L104 27.1475L87.7512 44ZM17.5402 41.7952H86.4598L101.324 26.3792L101.322 17.6129L86.4693 2.2048H17.5355L2.67801 17.6129L2.67563 26.3792L17.5402 41.7952Z" fill="black"/>
<path d="M2.21622 22L1 21.2447L23.7838 5.6944e-08L25 0.755253L2.21622 22Z" fill="black"/>
<path d="M101.784 22L79 0.755253L80.2163 5.6944e-08L103 21.2447L101.784 22Z" fill="black"/>
<path d="M23.7834 44L1 22.755L2.21661 22L25 43.245L23.7834 44Z" fill="black"/>
<path d="M80.2166 44L79 43.245L101.783 22L103 22.755L80.2166 44Z" fill="black"/>
</svg>
