<svg width="104" height="44" viewBox="0 0 104 44" fill="none" xmlns="http://www.w3.org/2000/svg">
<path d="M87.7512 44H16.2488L0 27.1494L0.00237703 16.8466L16.2441 -2.50817e-07H87.7607L103.998 16.8466L104 27.1494L87.7512 44ZM17.5402 41.7952H86.4598L101.324 26.3812L101.322 17.6149L86.4693 2.2048H17.5355L2.67801 17.6149L2.67563 26.3812L17.5402 41.7952Z" fill="black"/>
<path d="M6.76793 31L6.03586 30.3808C7.38795 28.0778 8.10508 25.3667 8.10508 22.5358C8.10508 19.6798 7.376 16.9455 6 14.6227L6.73058 14C8.21564 16.5053 9 19.4561 9 22.5358C9 25.5868 8.22908 28.5144 6.76793 31Z" fill="black"/>
<path d="M97.2317 31C95.7713 28.5144 95 25.5904 95 22.5358C95 19.4561 95.7833 16.5053 97.2691 14L98 14.6227C96.6248 16.9437 95.8954 19.6798 95.8954 22.5358C95.8954 25.3667 96.6114 28.0778 97.9641 30.3808L97.2317 31Z" fill="black"/>
<path d="M8.33322 17L7 16.766C7.04323 16.6112 8.0602 13.0275 13.3043 10.9934C13.6797 9.31298 16.2756 2 33 2V3.10552C15.4657 3.10552 14.6148 11.3213 14.608 11.4043L14.5807 11.7396L14.203 11.8723C9.28421 13.6577 8.34232 16.9668 8.33322 17Z" fill="black"/>
<path d="M95.6668 17C95.6281 16.8673 94.6839 13.6429 89.797 11.8723L89.4239 11.7396L89.3943 11.4079C89.3624 11.0652 88.4569 3.10552 71 3.10552V2C87.7244 2 90.3203 9.31298 90.6957 10.9934C95.9398 13.0275 96.9568 16.6112 97 16.766L95.6668 17Z" fill="black"/>
<path d="M95.0032 24C93.8964 24 93 23.1045 93 21.9989C93.0064 20.8955 93.9028 20 95.0032 20C95.5364 20 96.0377 20.2122 96.4158 20.5899C96.7961 20.9655 97.0021 21.4684 97 22.0032C97 23.1045 96.1057 24 95.0032 24ZM95.0032 21.061C94.487 21.061 94.0643 21.4833 94.0621 22.0032C94.0621 22.5167 94.4849 22.939 95.0032 22.939C95.5194 22.939 95.9379 22.5167 95.9379 21.9989C95.9379 21.7485 95.8423 21.5172 95.6659 21.339C95.4875 21.1607 95.2517 21.061 95.0032 21.061Z" fill="black"/>
<path d="M9.00318 24C7.89644 24 7 23.1045 7 21.9989C7.00637 20.8955 7.90281 20 9.00318 20C9.53637 20 10.0377 20.2122 10.4158 20.5899C10.7961 20.9655 11.0021 21.4684 11 22.0032C11 23.1045 10.1057 24 9.00318 24ZM9.00318 21.061C8.48698 21.061 8.06425 21.4833 8.06213 22.0032C8.06213 22.5167 8.48486 22.939 9.00318 22.939C9.51937 22.939 9.93785 22.5167 9.93785 21.9989C9.93785 21.7485 9.84226 21.5172 9.66595 21.339C9.48751 21.1607 9.25172 21.061 9.00318 21.061Z" fill="black"/>
<path d="M33 44C16.2756 44 13.6797 35.714 13.3043 33.81C8.0602 31.5073 7.04323 27.4447 7 27.2693L8.33322 27C8.37189 27.1566 9.31607 30.8058 14.203 32.8121L14.5761 32.9666L14.6057 33.3424C14.6376 33.7244 15.5431 42.7474 33 42.7474V44Z" fill="black"/>
<path d="M71 44V42.7471C88.5343 42.7471 89.3852 33.4316 89.392 33.3398L89.4193 32.9639L89.797 32.8094C94.7158 30.7901 95.6577 27.0376 95.6668 27L97 27.2652C96.9568 27.4406 95.9398 31.5042 90.6957 33.8075C90.3203 35.712 87.7244 44 71 44Z" fill="black"/>
</svg>
