<svg width="808" height="448" viewBox="0 0 808 448" fill="none" xmlns="http://www.w3.org/2000/svg">
<path d="M785.506 9.22882e-08H22.4942L0 12.5291V435.473L22.4942 448H785.506L808 435.473V12.5291L785.506 9.22882e-08ZM801.83 13.9537V23.6386C799.999 20.5845 797.401 17.3278 793.758 14.2512V14.0737H793.551C788.369 9.75738 781.068 5.84094 770.801 3.43658H782.948L801.83 13.9537ZM762.11 444.563H45.7781C34.0486 442.984 24.6615 439.387 17.6076 433.869V14.1887C23.7371 9.40249 32.7294 5.2436 45.8903 3.43658H762.226C773.951 5.01616 783.339 8.61269 790.392 14.1287V433.811C784.263 438.598 775.271 442.756 762.11 444.563ZM6.16986 29.3147C7.52947 25.7731 9.95252 21.3643 14.2423 17.1354V430.902C13.4929 430.16 12.7032 429.455 12.0211 428.658C9.07306 425.196 7.2737 421.72 6.16986 418.81V29.3147ZM793.758 17.0979C794.507 17.8402 795.301 18.545 795.979 19.3423C798.927 22.8039 800.726 26.2805 801.83 29.1897V418.683C800.471 422.227 798.047 426.636 793.758 430.862V17.0979ZM25.0518 3.43658H37.1986C26.932 5.84094 19.6314 9.75738 14.4487 14.0737H14.2423V14.2512C10.5987 17.3278 8.00062 20.5845 6.16986 23.6386V13.9537L25.0518 3.43658ZM6.16986 434.049V424.361C8.00062 427.413 10.5987 430.672 14.2423 433.749V433.926H14.4487C19.6314 438.243 26.932 442.159 37.1986 444.563H25.0518L6.16986 434.049ZM782.948 444.563H770.801C781.068 442.159 788.369 438.243 793.551 433.926H793.758V433.749C797.401 430.672 799.999 427.413 801.83 424.361V434.049L782.948 444.563Z" fill="black"/>
</svg>
