<svg width="344" height="768" viewBox="0 0 344 768" fill="none" xmlns="http://www.w3.org/2000/svg">
<path opacity="0.7" d="M339.607 715.033V8.10339L338.79 7.83167C336.713 7.13934 331.324 4.61011 331.324 1.23981V0H12.9235V1.23981C12.9235 4.61011 7.53233 7.13934 5.45365 7.83167L4.6367 8.10339V713.98C3.45128 719.036 -1.17874 739.879 0.282099 751.008L0.362118 751.619L0.912939 751.811C0.963185 751.829 2.50406 752.384 4.6367 753.384V759.899L5.45365 760.168C7.53233 760.857 12.9235 763.38 12.9235 766.76V768H331.324V766.76C331.324 763.39 336.713 760.861 338.79 760.168L339.607 759.897V753.273C341.607 752.347 343.04 751.829 343.087 751.811L343.638 751.619L343.718 751.008C345.093 740.54 341.075 721.47 339.607 715.033ZM6.96289 21.4121C7.26808 20.7337 7.79286 19.6168 8.53351 18.2362V716.735C8.53351 723.466 7.99943 731.097 6.96289 739.48V21.4121ZM6.96289 746.429C8.62285 735.271 9.46398 725.299 9.46398 716.735V16.5719C12.5438 11.2754 18.0262 3.90588 25.2504 2.47961H318.991C326.212 3.90588 331.698 11.2813 334.78 16.5778V716.735C334.78 725.299 335.621 735.271 337.281 746.429V752.206C332.249 754.737 325.278 759.301 324.07 765.52H19.93C18.7408 759.401 11.9744 754.884 6.96289 752.329V746.429ZM335.71 18.2422C336.451 19.6208 336.975 20.7357 337.281 21.4141V739.48C336.244 731.097 335.71 723.466 335.71 716.735V18.2422ZM337.281 9.89471V17.1233C334.915 12.6996 330.54 5.9491 324.466 2.47961H329.13C330.029 6.61761 335.23 9.07544 337.281 9.89471ZM15.1176 2.47961H19.7774C13.7032 5.9491 9.32815 12.6996 6.96289 17.1233V9.89471C9.01551 9.07544 14.2187 6.61761 15.1176 2.47961ZM2.05371 750.133C1.26839 742.807 3.0549 731.214 4.6367 723.01V751.21C3.51641 750.706 2.60269 750.343 2.05371 750.133ZM6.96289 758.105V754.554C11.4143 756.925 16.8501 760.722 18.0225 765.52H15.1176C14.2187 761.382 9.01551 758.925 6.96289 758.105ZM337.281 758.105C335.23 758.925 330.029 761.382 329.13 765.52H325.977C327.17 760.64 332.788 756.788 337.281 754.425V758.105ZM341.946 750.133C341.438 750.327 340.608 750.66 339.607 751.103V724.291C341.12 732.387 342.69 743.178 341.946 750.133Z" fill="black"/>
</svg>
