<svg width="104" height="44" viewBox="0 0 104 44" fill="none" xmlns="http://www.w3.org/2000/svg">
<path d="M87.7512 44H16.2488L0 27.1475L0.00237703 16.8447L16.2441 -2.50817e-07H87.7607L103.998 16.8447L104 27.1475L87.7512 44ZM17.5402 41.7952H86.4598L101.324 26.3792L101.322 17.6129L86.4693 2.2048H17.5355L2.67801 17.6129L2.67563 26.3792L17.5402 41.7952Z" fill="black"/>
<path d="M7.0239 32L6.04781 31.2715C7.8506 28.5617 8.80677 25.3719 8.80677 22.0432C8.80677 18.6828 7.83466 15.4635 6 12.7327L6.9741 12C8.95418 14.9456 10 18.4196 10 22.0432C10 25.633 8.97211 29.0755 7.0239 32Z" fill="black"/>
<path d="M98.9756 32C97.0284 29.0776 96 25.6351 96 22.0432C96 18.4175 97.0443 14.9456 99.0254 12L100 12.7327C98.1664 15.4635 97.1938 18.6828 97.1938 22.0432C97.1938 25.374 98.1485 28.5638 99.9522 31.2715L98.9756 32Z" fill="black"/>
<path d="M8.00001 21.999C7.99593 20.8984 8.89593 20 9.99797 20C11.1041 19.998 11.9959 20.8984 12 21.999C12 23.1036 11.1041 24 9.99797 24C8.89593 24 8.00001 23.1036 8.00001 21.999Z" fill="white"/>
<path d="M9.99675 25C7.79187 25 6 23.6531 6 21.9988C6 21.2033 6.40976 20.4518 7.16423 19.8833C7.92195 19.3148 8.92683 19 9.99675 19C12.2016 19 13.9935 20.3444 14 21.9963C14 23.6531 12.2049 25 9.99675 25ZM10.0098 20.22C9.3626 20.22 8.76423 20.4054 8.31545 20.7446C7.86992 21.0838 7.62602 21.5254 7.62602 21.9963C7.62602 22.9797 8.69268 23.78 9.99675 23.78C11.3073 23.78 12.374 22.9797 12.374 21.9988C12.3707 21.0179 11.3073 20.22 10.0098 20.22Z" fill="black"/>
<path d="M98 21.999C98.0041 20.8984 97.1036 20 96.001 20C94.8943 19.998 94.0041 20.8984 94 21.999C94 23.1036 94.8943 24 96.001 24C97.1036 24 98 23.1036 98 21.999Z" fill="white"/>
<path d="M96.0016 25C93.7926 25 92 23.6531 92 21.9988C92.0065 20.3444 93.7959 19 95.9886 19C97.072 19 98.0773 19.3148 98.8353 19.8833C99.5901 20.4518 100 21.2033 100 22.0012C100 23.6531 98.2074 25 96.0016 25ZM96.0016 20.22C94.6905 20.22 93.6299 21.0179 93.6267 22.0012C93.6267 22.9797 94.6938 23.78 96.0016 23.78C97.3062 23.78 98.3733 22.9797 98.3733 21.9988C98.3733 21.5254 98.1293 21.0838 97.6836 20.7446C97.2346 20.4054 96.636 20.22 96.0016 20.22Z" fill="black"/>
<path d="M99.0697 20L98 19.87C98.0238 19.7251 98.628 16.3132 102.612 15L103 15.8655C99.6046 16.9855 99.0762 19.9684 99.0697 20Z" fill="black"/>
<path d="M97.0616 17L87.7044 7.625C87.659 7.59497 85.7608 6.10473 82.7022 7.72447L82.2796 7.9497L76 2.63814L76.8715 2L82.4706 6.72973C86.15 5.02928 88.583 6.99062 88.6069 7.01314L98 16.42L97.0616 17Z" fill="black"/>
<path d="M102.61 29C98.6277 27.6868 98.0238 24.2749 98 24.13L99.0693 24C99.0909 24.1207 99.6234 27.0219 103 28.1326L102.61 29Z" fill="black"/>
<path d="M76.8715 42L76 41.3619L82.2796 36.0503L82.7022 36.2755C85.7895 37.9103 87.6638 36.4088 87.7402 36.3412L97.0616 27L98 27.5781L88.6427 36.955C88.5854 37.0075 86.15 38.9745 82.4706 37.2684L76.8715 42Z" fill="black"/>
<path d="M6.93027 20C6.90862 19.8793 6.37592 16.9781 3 15.8655L3.38761 15C7.37202 16.3132 7.97618 19.7251 8 19.87L6.93027 20Z" fill="black"/>
<path d="M8.93835 17L8 16.42L17.3573 7.04505C17.4146 6.99249 19.8524 5.02553 23.5294 6.72973L29.1285 2L30 2.63814L23.7204 7.9497L23.2978 7.72447C20.2129 6.09159 18.341 7.59497 18.2598 7.65691L8.93835 17Z" fill="black"/>
<path d="M3.38961 29L3 28.1326C6.3961 27.0145 6.92424 24.0297 6.93074 24L8 24.13C7.97619 24.2749 7.37229 27.6868 3.38961 29Z" fill="black"/>
<path d="M29.1285 42L23.5294 37.2684C19.85 38.9707 17.417 37.0094 17.3931 36.9869L8 27.5781L8.93835 27L18.2956 36.375C18.3362 36.4032 20.2392 37.8953 23.2978 36.2755L23.7204 36.0503L30 41.3619L29.1285 42Z" fill="black"/>
</svg>
