<svg width="338" height="248" viewBox="0 0 338 248" fill="none" xmlns="http://www.w3.org/2000/svg">
<path d="M337.5 237.047V229.736L336.049 232.614C337.018 234.438 337.089 236.184 336.872 237.557C337.097 237.38 337.306 237.21 337.5 237.047ZM337.5 242.098C334.501 243.69 329.601 245.89 323.131 247.498H329.192C329.696 246.995 330.441 246.512 331.248 246.074C332.157 245.579 333.195 245.114 334.169 244.714C335.144 244.315 336.063 243.978 336.737 243.741C337.05 243.631 337.31 243.543 337.5 243.48V242.098ZM0.5 5.90265C3.49905 4.31079 8.39789 2.11069 14.8671 0.501999H8.80844C8.30485 1.00548 7.55955 1.48778 6.75302 1.92633C5.84358 2.42084 4.80571 2.88622 3.83188 3.28554C2.85662 3.68544 1.93761 4.02232 1.26288 4.25912C0.95052 4.36876 0.690047 4.45708 0.5 4.52046V5.90265ZM336.049 15.3852L337.5 18.2633V10.9541C337.307 10.792 337.098 10.6222 336.873 10.4458C337.09 11.8182 337.018 13.5631 336.049 15.3852ZM323.128 0.5C329.599 2.10915 334.501 4.31053 337.5 5.90263V4.51852C337.31 4.4552 337.05 4.36696 336.737 4.25743C336.063 4.02078 335.144 3.68408 334.169 3.28429C333.195 2.8851 332.157 2.41978 331.248 1.92517C330.441 1.48647 329.695 1.00391 329.192 0.5H323.128ZM0.5 18.2633L1.95103 15.385C0.98395 13.5633 0.910917 11.8186 1.12732 10.4462C0.90258 10.6225 0.693854 10.7923 0.5 10.9545V18.2633ZM1.95105 232.614L0.5 229.736V237.046C0.693875 237.208 0.902582 237.378 1.12726 237.554C0.910931 236.182 0.984053 234.436 1.95105 232.614ZM14.8758 247.5C8.40233 245.891 3.49975 243.69 0.5 242.098V243.481C0.690042 243.545 0.950478 243.633 1.26278 243.743C1.93752 243.979 2.85655 244.316 3.83183 244.716C4.80568 245.115 5.84358 245.58 6.75305 246.075C7.55961 246.513 8.30496 246.996 8.80858 247.5H14.8758ZM334.076 232.888L333.937 232.652L334.062 232.408L334.097 232.339L334.097 232.338L337.5 225.588V22.4135L334.061 15.5897L333.937 15.3442L334.078 15.1082L334.117 15.0427C334.117 15.0422 334.118 15.0418 334.118 15.0414C335.694 12.3505 334.831 9.74345 334.353 8.6962C330.607 6.38516 324.703 3.90031 316.524 3.90031H199.828C199.453 4.17036 198.924 4.31435 198.372 4.31435C197.899 4.31435 197.445 4.21233 197.092 4.02344C196.761 3.84622 196.394 3.51648 196.394 3.0244C196.394 2.53223 196.76 2.20215 197.092 2.02458C197.445 1.83546 197.899 1.73346 198.372 1.73346C198.924 1.73346 199.455 1.87721 199.83 2.14848H316.524C326.674 2.14848 333.608 5.63707 337.5 8.38374V7.76369C333.98 5.75816 326.102 1.97139 314.964 0.5L23.0206 0.501999C11.885 1.97435 4.01617 5.75731 0.5 7.76253V8.38399C4.39294 5.63734 11.326 2.14848 21.478 2.14848H138.171C138.547 1.87769 139.077 1.73346 139.63 1.73346C140.102 1.73346 140.556 1.83553 140.909 2.02449C141.241 2.20174 141.607 2.53169 141.607 3.0244C141.607 3.51701 141.24 3.84665 140.909 4.02351C140.556 4.21227 140.102 4.31435 139.63 4.31435C139.076 4.31435 138.549 4.16971 138.175 3.90031H21.478C13.2989 3.90031 7.39273 6.38519 3.64932 8.69615C3.17135 9.7428 2.30879 12.3475 3.87929 15.0368C3.88048 15.0388 3.88167 15.0408 3.88286 15.0429L3.91864 15.0998L4.07203 15.3454L3.93536 15.6006L3.9035 15.6598L3.89779 15.6708L0.5 22.4134V225.586L3.94099 232.409L4.06679 232.659L3.92032 232.897L3.88005 232.962C2.30736 235.652 3.17367 238.257 3.64985 239.305C7.39328 241.616 13.2993 244.101 21.478 244.101H138.171C138.547 243.83 139.077 243.686 139.63 243.686C140.102 243.686 140.556 243.787 140.909 243.976C141.241 244.154 141.607 244.484 141.607 244.977C141.607 245.469 141.24 245.798 140.909 245.975C140.556 246.163 140.102 246.266 139.63 246.266C139.076 246.266 138.549 246.121 138.175 245.853H21.478C11.3259 245.853 4.39285 242.363 0.5 239.617V240.237C4.02016 242.244 11.9 246.031 23.0431 247.5L314.974 247.498C326.111 246.028 333.984 242.245 337.5 240.239V239.617C333.608 242.363 326.674 245.853 316.524 245.853H199.827C199.453 246.122 198.925 246.266 198.372 246.266C197.899 246.266 197.445 246.164 197.092 245.975C196.761 245.798 196.394 245.469 196.394 244.977C196.394 244.484 196.76 244.154 197.092 243.976C197.445 243.787 197.899 243.686 198.372 243.686C198.924 243.686 199.455 243.829 199.83 244.101H316.524C324.707 244.101 330.606 241.62 334.349 239.31C334.826 238.266 335.699 235.655 334.117 232.957L334.076 232.888Z" stroke="black"/>
</svg>
