<svg width="148" height="100" viewBox="0 0 148 100" fill="none" xmlns="http://www.w3.org/2000/svg">
<path d="M138.612 0H9.3866L0 10.1642V89.8378L9.3866 100H138.612L148 89.8378V10.1642L138.612 0ZM145.425 11.32V19.1768C144.661 16.6991 143.576 14.0572 142.056 11.5612V11.4173H141.969C139.806 7.91566 136.759 4.73844 132.474 2.78792H137.544L145.425 11.32ZM128.847 97.2121H19.1047C14.211 95.9307 10.2912 93.013 7.34897 88.5381V11.5106C9.90725 7.62774 13.6604 4.25385 19.1515 2.78792H128.893C133.789 4.06934 137.707 6.98702 140.651 11.4619V88.4895C138.093 92.3723 134.34 95.7461 128.847 97.2121ZM2.57513 23.7814C3.1426 20.9084 4.15393 17.3317 5.94435 13.9011V86.1294C5.63159 85.5272 5.3001 84.9554 5.0173 84.3086C3.78498 81.5004 3.03585 78.68 2.57513 76.32V23.7814ZM142.056 13.8706C142.368 14.4728 142.7 15.0446 142.983 15.6914C144.213 18.4996 144.964 21.32 145.425 23.6801V76.2165C144.857 79.0916 143.846 82.6683 142.056 86.0989V13.8706ZM10.456 2.78792H15.5257C11.2407 4.73844 8.19361 7.91566 6.0305 11.4173H5.94435V11.5612C4.42175 14.0572 3.33737 16.6991 2.57513 19.1768V11.32L10.456 2.78792ZM2.57513 88.6821V80.8232C3.33737 83.3009 4.42175 85.9428 5.94435 88.4388V88.5827H6.0305C8.19361 92.0843 11.2407 95.2616 15.5257 97.2121H10.456L2.57513 88.6821ZM137.544 97.2121H132.474C136.759 95.2616 139.806 92.0843 141.969 88.5827H142.056V88.4388C143.576 85.9428 144.661 83.3009 145.425 80.8232V88.6821L137.544 97.2121Z" fill="black"/>
</svg>
