<svg width="148" height="120" viewBox="0 0 148 120" fill="none" xmlns="http://www.w3.org/2000/svg">
<path d="M138.612 3.34605e-06H9.3866L0 12.1971V107.805L9.3866 120H138.612L148 107.805V12.1971L138.612 3.34605e-06ZM145.425 13.5839V23.0122C144.661 20.0389 143.576 16.8686 142.056 13.8735V13.7007H141.97C139.806 9.49879 136.759 5.68613 132.474 3.3455H137.544L145.425 13.5839ZM128.847 116.655H19.1047C14.211 115.117 10.2912 111.616 7.34897 106.246V13.8127C9.90725 9.15329 13.6604 5.10463 19.1515 3.3455H128.893C133.789 4.88321 137.707 8.38443 140.651 13.7543V106.187C138.093 110.847 134.34 114.895 128.847 116.655ZM2.57513 28.5377C3.1426 25.09 4.15393 20.7981 5.94435 16.6813V103.355C5.63159 102.633 5.3001 101.946 5.0173 101.17C3.78498 97.8005 3.03585 94.4161 2.57513 91.5839V28.5377ZM142.056 16.6448C142.368 17.3674 142.7 18.0535 142.983 18.8297C144.213 22.1995 144.964 25.5839 145.425 28.4161V91.4599C144.857 94.91 143.846 99.2019 142.056 103.319V16.6448ZM10.456 3.3455H15.5257C11.2407 5.68613 8.19361 9.49879 6.0305 13.7007H5.94435V13.8735C4.42175 16.8686 3.33737 20.0389 2.57513 23.0122V13.5839L10.456 3.3455ZM2.57513 106.418V96.9878C3.33737 99.9611 4.42175 103.131 5.94435 106.127V106.299H6.0305C8.19361 110.501 11.2407 114.314 15.5257 116.655H10.456L2.57513 106.418ZM137.544 116.655H132.474C136.759 114.314 139.806 110.501 141.97 106.299H142.056V106.127C143.576 103.131 144.661 99.9611 145.425 96.9878V106.418L137.544 116.655Z" fill="black"/>
</svg>
