<svg width="280" height="80" viewBox="0 0 280 80" fill="none" xmlns="http://www.w3.org/2000/svg">
<path d="M279.995 21.789L279.017 21.2602C275.396 19.307 270.909 11.7616 269.487 9.02094L268.992 8.06567H69.688V0H52.6641L52.0127 0.938202C50.9181 2.51608 49.5733 3.75848 48.0824 4.64266C44.3973 2.82028 40.5091 1.79395 36.5813 1.55798C36.2717 0.804581 35.6179 0.272934 34.8427 0.272934C34.0701 0.272934 33.4138 0.804581 33.1067 1.55798C29.1788 1.79395 25.2931 2.82028 21.608 4.64266C20.1146 3.75848 18.7699 2.51608 17.6777 0.938202L17.0264 0H0V80H17.0264L17.6777 79.0618C18.7699 77.4868 20.1122 76.2415 21.603 75.3602C25.2807 77.1882 29.1367 78.2288 33.1166 78.4619C33.4286 79.204 34.0775 79.7271 34.8427 79.7271C35.608 79.7271 36.2593 79.204 36.5689 78.4619C40.5512 78.2288 44.4097 77.1882 48.0874 75.3602C49.5758 76.2415 50.9206 77.4868 52.0127 79.0618L52.6641 80H69.688V71.9343H268.028H268.997L269.492 70.9791C270.913 68.2355 275.399 60.693 279.019 58.737L280 58.211L279.995 21.789ZM263.04 61.8728H74.651V18.1272H263.045C268.786 21.843 274.554 26.8894 276.592 32.9706V47.0209C274.557 53.1049 268.786 58.1542 263.04 61.8728ZM69.688 18.1272H72.796V61.8728H69.688V18.1272ZM276.59 24.1913V28.4076C272.102 20.7484 262.85 15.142 256.436 11.9748H267.075C268.477 14.5023 272.484 21.3 276.59 24.1913ZM251.393 11.9748C253.33 12.8022 256.284 14.1583 259.526 15.9949H69.688V11.9748H251.393ZM33.2503 3.65897C33.5896 4.27307 34.1617 4.69952 34.8427 4.69952C35.5263 4.69952 36.0959 4.27307 36.4401 3.65897C39.5284 3.83809 42.5869 4.53179 45.5291 5.74576C44.6251 6.00163 43.694 6.14095 42.7504 6.14095H26.94C25.9915 6.14095 25.0628 6.00163 24.1638 5.74576C27.101 4.53179 30.162 3.83809 33.2503 3.65897ZM36.4376 76.3382C36.0934 75.7298 35.5238 75.2976 34.8427 75.2976C34.1617 75.2976 33.5921 75.7298 33.2528 76.3382C30.162 76.1619 27.101 75.4682 24.1638 74.2514C25.0628 73.9955 25.9915 73.8562 26.94 73.8562H42.7504C43.694 73.8562 44.6251 73.9955 45.5291 74.2514C42.5869 75.4682 39.5259 76.1619 36.4376 76.3382ZM54.7097 75.0247C51.6214 71.107 47.3172 68.8809 42.7504 68.8809H26.94C22.3708 68.8809 18.069 71.107 14.9807 75.0247H12.098C12.098 75.0247 4.33398 74.9309 4.33398 62.939V17.061C4.33398 5.06628 12.098 4.9753 12.098 4.9753H14.9807C18.069 8.893 22.3708 11.1162 26.94 11.1162H42.7504C47.3172 11.1162 51.6214 8.893 54.7097 4.9753H57.5899C57.5899 4.9753 65.354 5.06628 65.354 17.061V62.939C65.354 74.9309 57.5899 75.0247 57.5899 75.0247H54.7097ZM69.688 64.0051H259.521C256.282 65.8389 253.327 67.1978 251.393 68.0252H69.688V64.0051ZM267.08 68.0252H256.436C262.852 64.8552 272.107 59.2487 276.595 51.5839V55.8087C272.486 58.6972 268.482 65.4949 267.08 68.0252Z" fill="black"/>
</svg>
