<svg width="48" height="30" viewBox="0 0 48 30" fill="none" xmlns="http://www.w3.org/2000/svg">
<path d="M38.2134 30H9.78376L10.0047 28.735C10.1683 27.797 9.98934 26.8365 9.52784 26.1706C8.82021 25.1391 7.59794 25.1452 6.8959 26.1645L6.4414 26.8264L0 18.9299V11.0721L6.4414 3.17563L6.8959 3.83553C7.59794 4.85482 8.8258 4.85279 9.52504 3.8335C9.98934 3.16142 10.1683 2.20304 10.0047 1.26497L9.78376 -1.69307e-06H38.2134L37.9939 1.26294C37.8317 2.20304 38.0093 3.16345 38.4708 3.82944C39.177 4.86091 40.3993 4.85076 41.1013 3.83553L41.5572 3.17563L48 11.0721V18.9299L41.5558 26.8264L41.1013 26.1645C40.3979 25.1411 39.1728 25.1431 38.4736 26.1665C38.0093 26.8365 37.8317 27.7949 37.9939 28.7371L38.2134 30ZM11.4591 27.9695H36.5367C36.5493 26.7594 36.8779 25.6061 37.4848 24.731C38.5561 23.1716 40.3489 22.934 41.588 24.1279L46.6015 17.9858V12.0162L41.5866 5.87005C40.3503 7.06802 38.5575 6.83655 37.482 5.26497C36.8779 4.39391 36.5493 3.23858 36.5367 2.03046H11.4633C11.4507 3.23655 11.1207 4.39391 10.5138 5.26903C9.44673 6.83045 7.65248 7.06802 6.41203 5.87005L1.39848 12.0162V17.9858L6.41203 24.1299C7.64968 22.9299 9.44393 23.1695 10.5166 24.735C11.1109 25.5919 11.4424 26.7614 11.4591 27.9695Z" fill="black"/>
<path d="M39.8589 6.78374C38.9589 7.92407 37.4982 7.92726 36.597 6.78055C36.0008 6.02831 35.8092 4.96465 36.0008 4H11.9979C12.1908 4.96465 11.9979 6.02831 11.4018 6.78055C10.5018 7.92726 9.04105 7.92407 8.13987 6.78374L3 12.2809V15.0008V17.7207L8.13987 23.2179C9.04105 22.0759 10.5018 22.0743 11.4018 23.2211C11.9979 23.9717 12.1908 25.0354 11.9979 26H36.0008C35.8092 25.0354 36.0008 23.9717 36.597 23.2211C37.4982 22.0743 38.9589 22.0759 39.8589 23.2179L45 17.7207V15.0008V12.2809L39.8589 6.78374Z" fill="white" fill-opacity="0.6"/>
</svg>
