<svg width="140" height="120" viewBox="0 0 140 120" fill="none" xmlns="http://www.w3.org/2000/svg">
<path d="M138.276 32.7283C122.871 30.3971 120.832 12.8739 120.815 12.6974L120.692 11.5797L70.0029 7.62939e-06L19.3075 11.5797L19.185 12.6974C19.1675 12.8739 17.126 30.3971 1.72368 32.7283L0 32.9875V60.1471L0.0641621 60.5567C0.230405 61.0447 17.0939 109.453 69.4634 119.891L70.0029 120L70.5366 119.891C122.906 109.453 139.77 61.0447 139.933 60.5567L140 32.9875L138.276 32.7283ZM135.727 59.927C134.54 63.2059 117.863 106.771 70.0029 116.612C22.1366 106.771 5.45977 63.2059 4.27274 59.927V35.6259C19.048 32.4036 22.5595 18.2509 23.2828 14.0896L70.0029 3.41837L116.714 14.0896C117.435 18.2509 120.949 32.4036 135.727 35.6259V59.927ZM112.304 17.643L112.164 17.1201L73.1849 8.21366C73.0449 6.94566 71.6974 5.93912 70.0058 5.93912C68.3084 5.93912 66.961 6.94349 66.821 8.21366L27.8355 17.1223L27.6955 17.6452C26.5639 21.9002 22.8832 31.8263 12.5149 36.9789C11.9608 36.6412 11.2929 36.4081 10.5287 36.4081C8.74089 36.4081 7.29428 37.5192 7.29428 38.8896C7.29428 39.9441 8.15466 40.833 9.36211 41.1903V59.2538L9.40877 59.5065C11.0741 63.8182 26.5464 101.089 66.7976 111.762C66.8939 113.072 68.2734 114.113 70.0058 114.113C71.7528 114.113 73.1615 113.041 73.2169 111.71C89.6867 107.355 103.89 98.261 115.428 84.5266C124.878 73.2715 129.425 62.5327 130.588 59.5109L130.632 41.1925C131.842 40.8352 132.709 39.9463 132.709 38.8896C132.709 37.5192 131.259 36.4081 129.471 36.4081C128.707 36.4081 128.033 36.6412 127.482 36.9789C117.117 31.8263 113.433 21.9002 112.304 17.643ZM72.4616 110.065C71.8637 109.521 71.0062 109.15 70.0058 109.15C68.9996 109.15 68.1392 109.521 67.5472 110.067C28.763 99.7752 13.5503 63.8792 11.6924 59.1231V41.1925C12.9057 40.833 13.7661 39.9463 13.7661 38.8896C13.7661 38.7654 13.6961 38.6565 13.6698 38.5367C24.4465 33.2359 28.4801 23.2836 29.8333 18.5276L67.4918 9.92829C68.0897 10.5078 68.9675 10.9022 70.0058 10.9022C71.0383 10.9022 71.9191 10.5078 72.5111 9.92829L110.164 18.5276C111.517 23.2815 115.554 33.2359 126.327 38.5388C126.304 38.6608 126.234 38.7654 126.234 38.8896C126.234 39.9463 127.094 40.833 128.308 41.1903V59.1253C126.45 63.8813 111.234 99.7752 72.4616 110.065Z" fill="black"/>
</svg>
