<svg width="140" height="100" viewBox="0 0 140 100" fill="none" xmlns="http://www.w3.org/2000/svg">
<path d="M126.565 0H13.4319L0 10.1729V89.8291L13.4319 100H126.565L140 89.8291V10.1729L126.565 0ZM136.315 11.3296V19.1932C135.222 16.7133 133.67 14.0692 131.494 11.5711V11.427H131.371C128.275 7.9224 123.915 4.74249 117.783 2.7903H125.038L136.315 11.3296ZM112.592 97.2097H27.3381C20.3327 95.9272 14.7263 93.005 10.5134 88.5263V11.5204C14.1769 7.63425 19.5448 4.25748 27.4051 2.7903H112.659C119.665 4.07281 125.271 6.99298 129.484 11.4717V88.4797C125.823 92.3658 120.453 95.7425 112.592 97.2097ZM3.68492 23.8017C4.49426 20.9262 5.94142 17.3465 8.50345 13.9129V86.1175C8.0559 85.5148 7.58423 84.9426 7.17688 84.2932C5.41616 81.4846 4.34418 78.6619 3.68492 76.2998V23.8017ZM131.494 13.8825C131.941 14.4852 132.416 15.0574 132.82 15.7048C134.581 18.5154 135.656 21.3381 136.315 23.7002V76.1963C135.503 79.0738 134.056 82.6535 131.494 86.0851V13.8825ZM14.9621 2.7903H22.2167C16.0823 4.74249 11.7247 7.9224 8.62673 11.427H8.50345V11.5711C6.32734 14.0692 4.77565 16.7133 3.68492 19.1932V11.3296L14.9621 2.7903ZM3.68492 88.6724V80.8069C4.77565 83.2846 6.32734 85.9308 8.50345 88.4269V88.573H8.62673C11.7247 92.0756 16.0823 95.2575 22.2167 97.2097H14.9621L3.68492 88.6724ZM125.038 97.2097H117.783C123.915 95.2575 128.275 92.0756 131.371 88.573H131.494V88.4269C133.67 85.9308 135.222 83.2846 136.315 80.8069V88.6724L125.038 97.2097Z" fill="black"/>
</svg>
