<svg width="152" height="120" viewBox="0 0 152 120" fill="none" xmlns="http://www.w3.org/2000/svg">
<path d="M141.745 3.34605e-06H9.79545L0.210938 12.1971V107.805L9.79545 120H141.745L151.331 107.805V12.1971L141.745 3.34605e-06ZM148.702 13.5839V23.0122C147.922 20.0389 146.815 16.8686 145.262 13.8735V13.7007H145.174C142.965 9.49879 139.854 5.68613 135.478 3.3455H140.655L148.702 13.5839ZM131.774 116.655H19.7184C14.7216 115.117 10.7191 111.616 7.71486 106.246V13.8127C10.3271 9.15329 14.1593 5.10463 19.7662 3.3455H131.822C136.821 4.88321 140.821 8.38443 143.827 13.7543V106.187C141.215 110.847 137.383 114.895 131.774 116.655ZM2.84037 28.5377C3.4198 25.09 4.45245 20.7981 6.28062 16.6813V103.355C5.96127 102.633 5.62278 101.946 5.33402 101.17C4.07572 97.8005 3.3108 94.4161 2.84037 91.5839V28.5377ZM145.262 16.6448C145.581 17.3674 145.92 18.0535 146.208 18.8297C147.465 22.1995 148.232 25.5839 148.702 28.4161V91.4599C148.123 94.91 147.09 99.2019 145.262 103.319V16.6448ZM10.8874 3.3455H16.064C11.6886 5.68613 8.57731 9.49879 6.36859 13.7007H6.28062V13.8735C4.72591 16.8686 3.61868 20.0389 2.84037 23.0122V13.5839L10.8874 3.3455ZM2.84037 106.418V96.9878C3.61868 99.9611 4.72591 103.131 6.28062 106.127V106.299H6.36859C8.57731 110.501 11.6886 114.314 16.064 116.655H10.8874L2.84037 106.418ZM140.655 116.655H135.478C139.854 114.314 142.965 110.501 145.174 106.299H145.262V106.127C146.815 103.131 147.922 99.9611 148.702 96.9878V106.418L140.655 116.655Z" fill="black"/>
</svg>
