<svg width="180" height="120" viewBox="0 0 180 120" fill="none" xmlns="http://www.w3.org/2000/svg">
<path d="M162.727 0H17.2695L0 12.2075V107.795L17.2695 120H162.727L180 107.795V12.2075L162.727 0ZM175.262 13.5955V23.0318C173.856 20.056 171.861 16.883 169.064 13.8853V13.7124H168.905C164.925 9.50688 159.319 5.69098 151.436 3.34835H160.763L175.262 13.5955ZM144.761 116.652H35.1489C26.142 115.113 18.9338 111.606 13.5172 106.232V13.8244C18.2274 9.16109 25.129 5.10898 35.2351 3.34835H144.848C153.855 4.88737 161.063 8.39158 166.479 13.766V106.176C161.773 110.839 154.868 114.891 144.761 116.652ZM4.73775 28.562C5.77833 25.1114 7.63897 20.8158 10.933 16.6955V103.341C10.3576 102.618 9.75115 101.931 9.22742 101.152C6.96363 97.7816 5.58537 94.3943 4.73775 91.5597V28.562ZM169.064 16.659C169.639 17.3822 170.249 18.0689 170.769 18.8457C173.033 22.2184 174.415 25.6058 175.262 28.4403V91.4355C174.218 94.8886 172.358 99.1842 169.064 103.302V16.659ZM19.237 3.34835H28.5643C20.6773 5.69098 15.0747 9.50688 11.0915 13.7124H10.933V13.8853C8.13515 16.883 6.14012 20.056 4.73775 23.0318V13.5955L19.237 3.34835ZM4.73775 106.407V96.9682C6.14012 99.9416 8.13515 103.117 10.933 106.112V106.288H11.0915C15.0747 110.491 20.6773 114.309 28.5643 116.652H19.237L4.73775 106.407ZM160.763 116.652H151.436C159.319 114.309 164.925 110.491 168.905 106.288H169.064V106.112C171.861 103.117 173.856 99.9416 175.262 96.9682V106.407L160.763 116.652Z" fill="black"/>
</svg>
