<svg width="188" height="100" viewBox="0 0 188 100" fill="none" xmlns="http://www.w3.org/2000/svg">
<path d="M169.959 0H18.0371L0 10.1729V89.8291L18.0371 100H169.959L188 89.8291V10.1729L169.959 0ZM183.052 11.3296V19.1932C181.583 16.7133 179.5 14.0692 176.577 11.5711V11.427H176.412C172.255 7.9224 166.4 4.74249 158.166 2.7903H167.908L183.052 11.3296ZM151.195 97.2097H36.7111C27.3039 95.9272 19.7753 93.005 14.118 88.5263V11.5204C19.0375 7.63425 26.2459 4.25748 36.8011 2.7903H151.285C160.692 4.07281 168.221 6.99298 173.878 11.4717V88.4797C168.962 92.3658 161.751 95.7425 151.195 97.2097ZM4.94832 23.8017C6.03515 20.9262 7.97848 17.3465 11.4189 13.9129V86.1175C10.8179 85.5148 10.1845 84.9426 9.63752 84.2932C7.27313 81.4846 5.83361 78.6619 4.94832 76.2998V23.8017ZM176.577 13.8825C177.178 14.4852 177.815 15.0574 178.359 15.7048C180.723 18.5154 182.166 21.3381 183.052 23.7002V76.1963C181.961 79.0738 180.018 82.6535 176.577 86.0851V13.8825ZM20.092 2.7903H29.8338C21.5963 4.74249 15.7446 7.9224 11.5845 11.427H11.4189V11.5711C8.49671 14.0692 6.41302 16.7133 4.94832 19.1932V11.3296L20.092 2.7903ZM4.94832 88.6724V80.8069C6.41302 83.2846 8.49671 85.9308 11.4189 88.4269V88.573H11.5845C15.7446 92.0756 21.5963 95.2575 29.8338 97.2097H20.092L4.94832 88.6724ZM167.908 97.2097H158.166C166.4 95.2575 172.255 92.0756 176.412 88.573H176.577V88.4269C179.5 85.9308 181.583 83.2846 183.052 80.8069V88.6724L167.908 97.2097Z" fill="black"/>
</svg>
