<svg width="320" height="100" viewBox="0 0 320 100" fill="none" xmlns="http://www.w3.org/2000/svg">
<path d="M313.452 0.00804901L313.175 0.525139C313.117 0.635803 311.811 2.94964 308.354 3.43051C308.026 2.98183 307.531 2.66996 306.947 2.66996C306.379 2.66996 305.897 2.9597 305.568 3.38424C303.108 3.05829 300.324 1.99996 297.235 0.134804L297.01 -7.62939e-06H22.9902L22.7651 0.134804C19.6746 1.99996 16.8924 3.05829 14.4324 3.38424C14.1045 2.9597 13.6195 2.66996 13.0549 2.66996C12.469 2.66996 11.9743 2.98183 11.6464 3.43051C8.18917 2.94964 6.88542 0.635803 6.82916 0.533188L6.55559 -7.62939e-06H0V100L6.54784 99.992L6.82528 99.4749C6.88348 99.3642 8.18917 97.0504 11.6464 96.5695C11.9743 97.0202 12.469 97.33 13.053 97.33C13.6195 97.33 14.1026 97.0403 14.4324 96.6158C16.8924 96.9417 19.6746 98 22.7651 99.8652L22.9902 100H297.01L297.235 99.8652C300.324 98 303.108 96.9417 305.568 96.6158C305.894 97.0403 306.379 97.33 306.945 97.33C307.529 97.33 308.026 97.0202 308.354 96.5695C311.811 97.0504 313.115 99.3642 313.169 99.4668L313.444 100H320V-7.62939e-06L313.452 0.00804901ZM1.9401 26.7459C3.18758 36.0214 3.82007 44.4015 3.82007 51.7454V48.2546C3.82007 55.5985 3.18758 63.9786 1.9401 73.2541V26.7459ZM318.06 97.988H314.548C313.85 97.0041 311.997 94.986 308.47 94.5494C308.158 94.0001 307.605 93.6098 306.945 93.6098C306.258 93.6098 305.68 94.0243 305.379 94.6118C302.704 94.9579 299.734 96.0604 296.488 97.988H23.5121C20.2663 96.0604 17.296 94.9579 14.6206 94.6118C14.3199 94.0243 13.7417 93.6098 13.053 93.6098C12.3933 93.6098 11.8404 94.0001 11.53 94.5494C8.00293 94.986 6.15011 97.0041 5.45167 97.988H1.9401V79.8877C3.82394 67.9604 4.79012 57.3208 4.79012 48.2546V51.7454C4.79012 42.6792 3.82394 32.0396 1.9401 20.1123V2.01202H5.45167C6.15011 2.99591 8.00293 5.01398 11.53 5.4506C11.8424 6.00189 12.3934 6.39021 13.0549 6.39021C13.7417 6.39021 14.3199 5.97573 14.6206 5.38822C17.296 5.04215 20.2663 3.93955 23.5121 2.01202H296.488C299.734 3.93955 302.704 5.04215 305.379 5.38822C305.68 5.97573 306.258 6.39021 306.947 6.39021C307.605 6.39021 308.16 6.00189 308.47 5.4506C311.997 5.01398 313.85 2.99591 314.548 2.01202H318.06V20.1123C316.174 32.0396 315.21 42.6792 315.21 51.7454V48.2546C315.21 57.3208 316.174 67.9604 318.06 79.8877V97.988ZM318.06 73.2541C316.812 63.9786 316.18 55.5985 316.18 48.2546V51.7454C316.18 44.4015 316.812 36.0214 318.06 26.7459V73.2541Z" fill="black"/>
</svg>
