<svg width="320" height="100" viewBox="0 0 320 100" fill="none" xmlns="http://www.w3.org/2000/svg">
<path d="M0.682911 92.0686C2.89655 92.7808 8.63727 95.4126 8.63727 98.994V100H311.361V98.994C311.361 95.4226 317.105 92.7828 319.317 92.0686L320 91.8493V-7.62939e-06L313.452 0.00804138L313.173 0.525131C313.117 0.637802 311.811 2.94963 308.354 3.43252C308.026 2.98182 307.531 2.67197 306.945 2.67197C306.379 2.67197 305.896 2.95969 305.566 3.38423C303.108 3.05828 300.324 2.00196 297.233 0.13681L297.008 -7.62939e-06H22.992L22.7669 0.13681C19.6764 2.00196 16.8923 3.05828 14.4343 3.38423C14.1064 2.95969 13.6214 2.67197 13.0568 2.67197C12.4709 2.67197 11.9742 2.98182 11.6463 3.43252C8.18911 2.94963 6.88537 0.63781 6.83105 0.53318L6.55556 -7.62939e-06H0V91.8493L0.682911 92.0686ZM3.82003 81.7489C2.78597 79.8757 2.14962 78.4713 1.94009 77.9984V26.7459C3.1895 36.0234 3.82003 44.4035 3.82003 51.7454V81.7489ZM10.4842 97.988C9.6888 93.6842 3.9539 91.1531 1.94009 90.3905V82.441C4.39818 87.0083 9.21348 94.4408 16.0018 97.988H10.4842ZM309.512 97.988H304C310.786 94.4408 315.602 87.0083 318.06 82.441V90.3905C316.048 91.1531 310.309 93.6842 309.512 97.988ZM318.06 77.9984C317.85 78.4733 317.214 79.8777 316.18 81.7529V51.7454C316.18 44.4035 316.81 36.0234 318.06 26.7459V77.9984ZM5.45359 2.01202C6.15008 2.99792 8.00286 5.01599 11.5319 5.45059C11.8442 6.00188 12.3952 6.39021 13.0568 6.39021C13.7436 6.39021 14.3198 5.97572 14.6224 5.38821C17.2959 5.04214 20.2681 3.93955 23.5139 2.01202H296.488C299.734 3.93955 302.704 5.04214 305.379 5.38821C305.68 5.97572 306.258 6.39021 306.945 6.39021C307.605 6.39021 308.158 6.00188 308.468 5.45059C311.997 5.01599 313.85 2.99792 314.546 2.01202H318.06V20.1143C316.174 32.0396 315.21 42.6792 315.21 51.7454V83.443C311.64 89.4127 304.98 97.988 296.172 97.988H23.8301C15.0279 97.988 8.36178 89.4067 4.79008 83.437V51.7454C4.79008 42.6792 3.82585 32.0396 1.94009 20.1143V2.01202H5.45359Z" fill="black"/>
</svg>
