<svg width="320" height="100" viewBox="0 0 320 100" fill="none" xmlns="http://www.w3.org/2000/svg">
<path d="M319.317 6.1695C317.103 5.61546 311.363 3.56836 311.363 0.782539V0H8.63922V0.782539C8.63922 3.56053 2.89462 5.6139 0.682921 6.1695L0 6.3401V100L6.5478 99.9937L6.82716 99.5915C6.88343 99.5039 8.18912 97.7056 11.6464 97.3316C11.9742 97.6806 12.469 97.9216 13.0549 97.9216C13.6214 97.9216 14.1044 97.6978 14.4343 97.3676C16.8923 97.6211 19.6764 98.4428 22.7669 99.8936L22.992 100H297.008L297.233 99.8936C300.324 98.4428 303.108 97.6211 305.566 97.3676C305.894 97.6978 306.379 97.9216 306.943 97.9216C307.529 97.9216 308.026 97.6806 308.354 97.3316C311.811 97.7056 313.115 99.5039 313.169 99.5853L313.444 100H320V6.3401L319.317 6.1695ZM316.18 14.1967C317.214 15.6538 317.85 16.7462 318.06 17.114V79.1956C316.81 71.979 316.18 65.4605 316.18 59.7496V14.1967ZM309.516 1.56507C310.311 4.91275 316.046 6.88161 318.06 7.47477V13.6583C315.602 10.1056 310.787 4.32429 303.998 1.56507H309.516ZM10.4881 1.56507H15.9999C9.21349 4.32429 4.39818 10.1056 1.94009 13.6583V7.47477C3.95196 6.88161 9.69075 4.91275 10.4881 1.56507ZM1.94009 17.114C2.14962 16.7447 2.78598 15.6522 3.82005 14.1936V59.7496C3.82005 65.4605 3.1895 71.979 1.94009 79.1956V17.114ZM314.546 98.4349C313.85 97.668 311.997 96.0983 308.468 95.7602C308.156 95.3314 307.605 95.0293 306.943 95.0293C306.256 95.0293 305.68 95.3518 305.378 95.8088C302.704 96.0779 299.732 96.9356 296.486 98.4349H23.5119C20.2662 96.9356 17.2959 96.0779 14.6205 95.8088C14.3198 95.3518 13.7416 95.0293 13.0549 95.0293C12.3952 95.0293 11.8423 95.3314 11.5319 95.7602C8.00286 96.0983 6.15009 97.668 5.4536 98.4349H1.94009V84.3556C3.82585 75.0779 4.79009 66.8018 4.79009 59.7496V12.8789C8.35986 8.23539 15.0202 1.56507 23.8282 1.56507H296.17C304.972 1.56507 311.638 8.24009 315.21 12.8836V59.7496C315.21 66.8018 316.174 75.0779 318.06 84.3556V98.4349H314.546Z" fill="black"/>
</svg>
