<svg width="340" height="448" viewBox="0 0 340 448" fill="none" xmlns="http://www.w3.org/2000/svg">
<path d="M339.5 428.483V414.84L337.991 420.217C339.064 423.67 339.089 426.973 338.824 429.477C339.068 429.131 339.293 428.799 339.5 428.483ZM339.5 437.003C336.177 440.152 330.59 444.58 323.164 447.496H331.054C331.539 446.623 332.276 445.759 333.099 444.956C334.014 444.063 335.059 443.221 336.04 442.498C337.023 441.774 337.95 441.164 338.63 440.735C338.97 440.521 339.25 440.351 339.444 440.235C339.464 440.223 339.482 440.212 339.5 440.202V437.003ZM16.8445 447.5C9.4134 444.583 3.82342 440.153 0.5 437.003V440.205C0.517647 440.216 0.536147 440.227 0.555478 440.238C0.750354 440.354 1.0298 440.524 1.37026 440.738C2.05071 441.167 2.97715 441.777 3.96016 442.5C4.94209 443.223 5.98735 444.065 6.90207 444.958C7.72432 445.761 8.46135 446.625 8.94628 447.5H16.8445ZM337.991 27.7818L339.5 33.1589V19.5183C339.293 19.204 339.069 18.8731 338.825 18.528C339.089 21.0319 339.063 24.3316 337.991 27.7818ZM2.0095 420.217L0.5 414.84V428.481C0.707162 428.796 0.9316 429.127 1.17476 429.472C0.911369 426.967 0.93831 423.667 2.0095 420.217ZM0.5 33.1588L2.0095 27.7816C0.938169 24.332 0.911362 21.0328 1.17486 18.529C0.931627 18.8737 0.707155 19.2045 0.5 19.5187V33.1588ZM0.5 7.79822V10.9978C3.82263 7.84918 9.40829 3.42065 16.8348 0.503601H8.94614C8.46121 1.37741 7.72422 2.24121 6.90203 3.04407C5.98735 3.93723 4.94213 4.77902 3.96022 5.50208C2.97724 6.22592 2.05082 6.83578 1.37039 7.26465C1.02994 7.47922 0.7505 7.64883 0.555632 7.76511C0.536244 7.77667 0.517693 7.78772 0.5 7.79822ZM323.16 0.5C330.588 3.41757 336.177 7.84872 339.5 10.9978V7.79468C339.482 7.78421 339.464 7.77322 339.445 7.76169C339.25 7.64548 338.97 7.47601 338.63 7.26157C337.95 6.83301 337.023 6.22345 336.041 5.49982C335.059 4.77698 334.014 3.9353 333.099 3.04196C332.276 2.23883 331.539 1.37457 331.054 0.5H323.16ZM336.012 420.399L335.964 420.253L336.006 420.107L336.041 419.981L336.041 419.98L339.5 407.659V40.3429L336.005 27.8905L335.964 27.743L336.012 27.5976L336.053 27.4754C337.757 22.2519 336.759 17.1935 336.27 15.3271C332.488 11.1187 326.568 6.64252 318.397 6.64252H201.093C200.736 7.08896 200.186 7.39041 199.546 7.39041C198.469 7.39041 197.559 6.54437 197.559 5.46344C197.559 4.3811 198.469 3.53464 199.546 3.53464C200.186 3.53464 200.738 3.836 201.095 4.28433H318.397C328.617 4.28433 335.589 10.5344 339.5 15.4475V13.7039C336.009 10.1057 328.062 3.17844 316.803 0.5L23.1823 0.503601C11.9248 3.18384 3.98705 10.1041 0.5 13.702V15.4479C4.41167 10.5349 11.3827 4.28433 21.6051 4.28433H138.906C139.264 3.83646 139.815 3.53464 140.456 3.53464C141.531 3.53464 142.442 4.38071 142.442 5.46344C142.442 6.54477 141.53 7.39041 140.456 7.39041C139.814 7.39041 139.266 7.0881 138.91 6.64252H21.6051C13.4341 6.64252 7.51186 11.1188 3.73159 15.3271C3.24269 17.1929 2.24519 22.2489 3.94563 27.4709C3.94614 27.4724 3.94665 27.474 3.94716 27.4756L3.98748 27.5912L4.04051 27.7436L3.99439 27.8983L3.95885 28.0173L3.95661 28.025L0.5 40.3429V407.657L3.99661 420.108L4.03874 420.258L3.98821 420.405L3.94596 420.528C2.24347 425.751 3.24582 430.809 3.73187 432.675C7.51215 436.883 13.4343 441.359 21.6051 441.359H138.906C139.264 440.911 139.815 440.61 140.456 440.61C141.53 440.61 142.442 441.453 142.442 442.538C142.442 443.618 141.53 444.464 140.456 444.464C139.815 444.464 139.267 444.161 138.91 443.717H21.6051C11.3826 443.717 4.4116 437.465 0.5 432.554V434.298C3.99102 437.898 11.9399 444.825 23.2048 447.5L316.812 447.496C328.072 444.82 336.013 437.899 339.5 434.3V432.554C335.59 437.466 328.617 443.717 318.397 443.717H201.092C200.736 444.162 200.186 444.464 199.546 444.464C198.47 444.464 197.559 443.618 197.559 442.538C197.559 441.454 198.469 440.61 199.546 440.61C200.186 440.61 200.738 440.911 201.095 441.359H318.397C326.572 441.359 332.486 436.89 336.267 432.684C336.753 430.828 337.762 425.761 336.053 420.525L336.012 420.399Z" stroke="black"/>
</svg>
