<svg width="104" height="44" viewBox="0 0 104 44" fill="none" xmlns="http://www.w3.org/2000/svg">
<path d="M87.7512 44H16.2488L0 27.1494L0.00237703 16.8466L16.2441 -2.50817e-07H87.7607L103.998 16.8466L104 27.1494L87.7512 44ZM17.5402 41.7952H86.4598L101.324 26.3812L101.322 17.6149L86.4693 2.2048H17.5355L2.67801 17.6149L2.67563 26.3812L17.5402 41.7952Z" fill="black"/>
<path d="M4.76793 29L4.03586 28.4537C5.38795 26.4216 6.10508 24.0295 6.10508 21.5316C6.10508 19.0116 5.376 16.5989 4 14.5495L4.73058 14C6.21564 16.2105 7 18.8142 7 21.5316C7 24.2237 6.22908 26.8068 4.76793 29Z" fill="black"/>
<path d="M99.2317 29C97.7713 26.8068 97 24.2268 97 21.5316C97 18.8142 97.7833 16.2105 99.2691 14L100 14.5495C98.6248 16.5974 97.8954 19.0116 97.8954 21.5316C97.8954 24.0295 98.6114 26.4216 99.9641 28.4537L99.2317 29Z" fill="black"/>
<path d="M79.1281 44L78 43.7816C78.0366 43.6371 78.8971 40.2923 83.3344 38.3938C83.6521 36.8255 85.8486 30 100 30V31.0318C85.1633 31.0318 84.4433 38.6999 84.4375 38.7773L84.4144 39.0903L84.0949 39.2141C79.9328 40.8805 79.1358 43.969 79.1281 44Z" fill="black"/>
<path d="M26.7135 1.7022L27.8584 1.90357C27.8228 2.04358 26.9846 5.28545 22.5088 7.15991C22.2027 8.67926 20.046 15.2985 5.71148 15.4216L5.70116 14.4238C20.7299 14.2948 21.3825 6.87356 21.3876 6.79868L21.4079 6.49582L21.7303 6.37331C25.9296 4.72574 26.706 1.73219 26.7135 1.7022Z" fill="black"/>
<path d="M24.8719 42C24.8392 41.885 24.0403 39.0905 19.9051 37.556L19.5894 37.441L19.5644 37.1535C19.5375 36.8565 18.7713 29.9581 4 29.9581V29C18.1514 29 20.3479 35.3379 20.6656 36.7943C25.1029 38.5572 25.9634 41.6631 26 41.7972L24.8719 42Z" fill="black"/>
<path d="M79.1281 1C79.1608 1.12382 79.9597 4.13328 84.0949 5.7859L84.4106 5.90972L84.4356 6.21926C84.4625 6.53912 85.2287 13.9682 100 13.9682V15C85.8486 15 83.6521 8.17455 83.3344 6.60619C78.8971 4.70765 78.0366 1.36285 78 1.2184L79.1281 1Z" fill="black"/>
<path d="M99.504 25C98.1205 25 97 23.8806 97 22.4987C97.008 21.1194 98.1285 20 99.504 20C100.17 20 100.797 20.2653 101.27 20.7374C101.745 21.2069 102.003 21.8355 102 22.504C102 23.8806 100.882 25 99.504 25ZM99.504 21.3263C98.8587 21.3263 98.3303 21.8541 98.3277 22.504C98.3277 23.1459 98.8561 23.6737 99.504 23.6737C100.149 23.6737 100.672 23.1459 100.672 22.4987C100.672 22.1857 100.553 21.8966 100.332 21.6737C100.109 21.4509 99.8146 21.3263 99.504 21.3263Z" fill="black"/>
<path d="M4.50397 25C3.12055 25 2 23.8806 2 22.4987C2.00797 21.1194 3.12851 20 4.50397 20C5.17046 20 5.79712 20.2653 6.26976 20.7374C6.74507 21.2069 7.00263 21.8355 6.99998 22.504C6.99998 23.8806 5.88209 25 4.50397 25ZM4.50397 21.3263C3.85873 21.3263 3.33032 21.8541 3.32766 22.504C3.32766 23.1459 3.85607 23.6737 4.50397 23.6737C5.14922 23.6737 5.67232 23.1459 5.67232 22.4987C5.67232 22.1857 5.55283 21.8966 5.33243 21.6737C5.10939 21.4509 4.81465 21.3263 4.50397 21.3263Z" fill="black"/>
</svg>
