<svg width="280" height="80" viewBox="0 0 280 80" fill="none" xmlns="http://www.w3.org/2000/svg">
<path d="M37.9907 0.0651932C37.5176 0.245621 37.2959 0.756851 37.4831 1.19405C37.5299 1.29815 37.8083 1.91347 38.3159 2.83183C32.6838 3.01688 27.3474 4.28686 22.5406 6.45899C27.1429 5.94776 34.3443 6.32482 41.2231 7.60867C41.3413 7.60867 41.43 7.60635 41.5236 7.60404C41.8858 8.06207 42.2775 8.52703 42.6939 8.99893C11.3159 2.11703 3.15603 16.9889 3.15603 16.9889C5.91048 14.3333 9.12318 12.441 12.5231 11.1179C13.5603 10.8541 14.5926 10.6367 15.6225 10.4424C6.14207 17.2526 0 27.9559 0 40.001C0 52.0461 6.14207 62.7494 15.6225 69.5573C14.5926 69.363 13.5603 69.1455 12.5231 68.8818C9.12318 67.561 5.91048 65.6664 3.15603 63.0108C3.15603 63.0108 11.3159 77.885 42.6939 71.0008C42.2775 71.4727 41.8858 71.9376 41.5236 72.3979C41.43 72.3956 41.3413 72.3933 41.2231 72.3933C34.3443 73.6749 27.1429 74.0519 22.5406 73.543C27.3474 75.7128 32.6838 76.9828 38.3159 77.1679C37.8083 78.0885 37.5299 78.7015 37.4831 78.8056C37.2959 79.2452 37.5176 79.7541 37.9907 79.9345C38.4612 80.1172 39.0008 79.9044 39.193 79.4603C39.2077 79.4302 46.6162 66.2193 56.2641 63.7302C59.1294 62.9923 61.9874 62.2451 65.0621 62.1665C60.0509 67.2117 53.3791 70.7879 45.8499 72.0672C43.8149 73.9455 42.9304 75.6804 42.6225 77.1262C48.1929 76.7376 53.4431 75.2641 58.1439 72.9277L63.4286 69.747C64.0864 69.2843 64.7245 68.7985 65.3479 68.2966H269.051L269.544 67.5193C270.961 65.287 275.42 59.15 279.024 57.5585L280 57.1306V40.001V22.8691L279.024 22.4412C275.42 20.8497 270.961 14.7126 269.544 12.4804L269.051 11.7031H65.3479C64.7245 11.2011 64.0864 10.7154 63.4286 10.2527L58.1439 7.072C53.4431 4.73794 48.1929 3.2644 42.6225 2.87347C42.9304 4.32156 43.8149 6.05417 45.8499 7.93253C53.3791 9.21175 60.0509 12.788 65.0621 17.8355C61.9874 17.7546 59.1294 17.0074 56.2641 16.2694C46.6162 13.7827 39.2077 0.571785 39.193 0.539398C39.0008 0.0975723 38.4612 -0.117554 37.9907 0.0651932ZM68.8562 65.1159C69.6545 64.3039 70.4133 63.4573 71.1327 62.5806C74.1508 63.0478 77.2748 63.869 80.5195 65.1159H68.8562ZM276.612 55.1759C272.523 57.5284 268.539 63.0571 267.147 65.1159H256.555C262.939 62.5389 272.148 57.9749 276.612 51.7407V55.1759ZM267.147 14.8838C268.539 16.9426 272.523 22.4736 276.612 24.8238V28.259C272.148 22.0248 262.939 17.4631 256.555 14.8838H267.147ZM68.8562 14.8838H80.5195C77.2748 16.1307 74.1508 16.9542 71.1327 17.4191C70.4133 16.5424 69.6545 15.6981 68.8562 14.8838ZM85.0059 14.8884L85.0109 14.8838H251.539C257.454 16.9519 272.986 23.1213 276.61 31.9717V40.001V48.0279C272.986 56.8807 257.454 63.0501 251.539 65.1159H85.0109L85.0059 65.1112C80.6131 63.0779 76.3928 61.7316 72.3473 61.0099C76.7426 55.0301 79.3295 47.8013 79.3295 40.001C79.3295 32.2007 76.7426 24.9719 72.3473 18.9921C76.3928 18.2681 80.6131 16.9218 85.0059 14.8884ZM46.7073 12.8412C49.1292 14.8121 52.061 16.6257 55.5915 17.8841C59.0777 19.1263 62.7856 19.6653 66.6783 19.5728C71.4949 25.1639 74.4021 32.2609 74.4021 40.001C74.4021 47.7388 71.4949 54.8381 66.6783 60.4292C62.7856 60.3367 59.0777 60.8734 55.5915 62.1156C52.061 63.374 49.1292 65.1876 46.7073 67.1585C43.2729 68.2873 36.1108 70.2489 27.4582 70.4687C14.3216 65.8168 4.92745 53.9429 4.92745 40.001C4.92745 26.0568 14.3216 14.1852 27.4582 9.53329C36.1108 9.75073 43.2729 11.7124 46.7073 12.8412Z" fill="black"/>
</svg>
