<svg width="344" height="467" viewBox="0 0 344 467" fill="none" xmlns="http://www.w3.org/2000/svg">
<path d="M344 9.62125V6.72235H338.509V0H336.12C336.12 0 335.171 2.3114 332.621 2.3114H11.3787C8.82932 2.3114 7.87951 0 7.87951 0H5.49062V6.72235H0V9.62125C2.25893 9.62125 2.38314 15.8396 2.38314 15.8396V447.302C2.38314 447.302 2.25893 453.52 0 453.52V456.419H2.38314H5.49062V467H7.87951V4.98557H336.12V462.014H7.88141V467C7.88141 467 8.83125 464.689 11.3807 464.689H332.623C335.159 464.689 336.111 466.971 336.12 466.997V467H338.509V456.419H341.617H344V453.52C341.741 453.52 341.617 447.302 341.617 447.302V15.8396C341.617 15.8396 341.741 9.62125 344 9.62125ZM5.49062 447.302H3.81648V18.2442H5.49062V447.302ZM340.184 447.302H338.509V18.2442H340.184V447.302Z" fill="black"/>
</svg>
