<svg width="280" height="264" viewBox="0 0 280 264" fill="none" xmlns="http://www.w3.org/2000/svg">
<path d="M274.297 159.629L274.293 114.759C275.063 101.503 276.92 64.3038 279.793 54.4189L280 53.7032L279.4 53.3105C279.359 53.2847 277.558 52.0755 275.733 50.0474C276.325 46.4742 277.088 43.0974 278.063 40.1185L278.182 39.7594L275.711 10.5593L274.641 10.2079C272.128 9.38112 264.969 6.06116 264.969 1.77493V0H15.0315V1.77493C15.0315 6.06375 8.04943 9.31653 5.36141 10.2079L4.28914 10.5619L1.81801 39.7594L1.93742 40.1185C2.91222 43.0949 3.67013 46.4587 4.26233 50.0241C2.44432 52.0704 0.640938 53.2847 0.599509 53.3105L0 53.7058L0.207143 54.4189C3.0755 64.2909 4.93251 101.428 5.70261 114.703L5.70748 159.578C4.93738 172.834 3.08038 199.699 0.207143 209.581L0 210.297L0.599509 210.692C0.640938 210.715 2.44188 211.922 4.2672 213.953C3.67501 217.526 2.91466 220.9 1.93742 223.881L1.81801 224.243L4.28914 253.441L5.36141 253.792C8.04943 254.683 15.0315 257.936 15.0315 262.225V264H264.969V262.225C264.969 257.936 271.951 254.683 274.641 253.792L275.711 253.441L278.182 224.243L278.063 223.881C277.09 220.908 276.33 217.541 275.738 213.976C277.556 211.93 279.359 210.715 279.4 210.692L280 210.294L279.793 209.581C276.924 199.712 275.067 172.907 274.297 159.629ZM270.479 225.367C270.491 225.401 270.922 226.481 271.49 228.085C271.741 230.488 271.936 235.482 270.164 240.977C267.228 250.082 260.046 256.743 249.355 260.448H30.5698C7.6059 252.526 7.85692 233.756 8.4881 228.15C9.07786 226.463 9.54333 225.295 9.57257 225.209C10.4572 221.213 9.22651 217.756 7.48648 215.071C10.852 195.513 9.13879 170.605 9.05349 169.481L9.0486 94.6537C9.13877 93.4161 10.8544 68.4609 7.47918 48.8951C9.21189 46.1875 10.4304 42.6944 9.52382 38.6329C9.51163 38.5993 9.07785 37.5168 8.51002 35.915C8.25901 33.5148 8.06407 28.5206 9.83577 23.0227C12.7748 13.918 19.9542 7.25482 30.6478 3.55249H249.43C272.394 11.4739 272.143 30.2439 271.512 35.8504C270.922 37.5375 270.457 38.7053 270.427 38.7905C269.543 42.7874 270.773 46.2443 272.516 48.9287C269.148 68.4893 270.861 93.3955 270.947 94.5193L270.951 169.349C270.861 170.584 269.146 195.539 272.521 215.107C270.791 217.815 269.572 221.308 270.479 225.367ZM277.853 54.5455C276.15 60.9296 274.824 72.7936 273.873 84.0918C273.695 75.6382 273.815 63.3324 275.37 52.4062C276.374 53.3958 277.288 54.1244 277.853 54.5455ZM272.158 39.3951C272.243 39.1833 273.288 36.5789 274.273 33.3546L274.777 39.3202C274.102 41.4388 273.535 43.7304 273.045 46.1203C272.107 44.1542 271.612 41.8728 272.158 39.3951ZM272.572 13.2101L273.808 27.8256C273.559 29.0864 273.225 30.3963 272.86 31.6597C272.782 29.1097 272.399 25.9628 271.315 22.6067C269.309 16.3853 264.452 8.50272 252.954 3.55249H261.817C263.065 8.99101 269.801 12.1327 272.572 13.2101ZM18.1825 3.55249H27.0337C10.4572 10.6859 7.43043 24.0665 7.18186 31.7941C6.80168 30.4945 6.45076 29.133 6.19244 27.8282L7.42799 13.2101C10.1989 12.1327 16.9372 8.99101 18.1825 3.55249ZM5.2225 39.3202L5.72696 33.3546C6.70177 36.5479 7.73018 39.1031 7.79355 39.2349C8.34918 41.7514 7.8691 44.0611 6.9406 46.0505C6.45563 43.6839 5.89024 41.4155 5.2225 39.3202ZM4.62788 52.3985C6.18269 63.3091 6.30454 75.6072 6.12664 84.0867C5.17377 72.791 3.85046 60.9296 2.147 54.5455C2.71482 54.1244 3.62871 53.3932 4.62788 52.3985ZM2.147 209.455C3.85046 203.07 5.1762 191.209 6.12664 179.911C6.30454 188.362 6.18513 200.67 4.63032 211.594C3.62871 210.604 2.71482 209.873 2.147 209.455ZM7.8423 224.605C7.757 224.819 6.71152 227.421 5.72696 230.645L5.2225 224.682C5.89755 222.564 6.46783 220.275 6.95523 217.882C7.89591 219.851 8.38819 222.13 7.8423 224.605ZM7.42799 250.79L6.19244 236.174C6.44101 234.919 6.77732 233.606 7.14043 232.343C7.21842 234.893 7.60103 238.037 8.6855 241.393C10.6912 247.62 15.5481 255.497 27.0459 260.448H18.1825C16.9372 255.009 10.1989 251.867 7.42799 250.79ZM261.817 260.448H252.966C269.543 253.317 272.57 239.934 272.821 232.206C273.198 233.508 273.549 234.867 273.808 236.172L272.572 250.79C269.801 251.867 263.065 255.009 261.817 260.448ZM274.777 224.682L274.273 230.645C273.298 227.449 272.27 224.902 272.209 224.765C271.651 222.249 272.131 219.941 273.059 217.949C273.544 220.316 274.11 222.584 274.777 224.682ZM275.372 211.601C273.817 200.693 273.695 188.395 273.873 179.916C274.826 191.212 276.15 203.07 277.853 209.455C277.288 209.876 276.374 210.607 275.372 211.601Z" fill="black"/>
</svg>
