<svg width="280" height="556" viewBox="0 0 280 556" fill="none" xmlns="http://www.w3.org/2000/svg">
<path d="M274.297 472.348L274.293 83.6958C275.063 73.0708 276.92 51.5391 279.793 43.6163L280 43.0427L279.4 42.728C279.359 42.7073 277.558 41.7382 275.733 40.1126C276.325 37.2488 277.088 34.5444 278.063 32.1547L278.182 31.8669L275.711 8.4632L274.641 8.18158C272.128 7.51898 264.969 4.85803 264.969 1.42261V0H15.0315V1.42261C15.0315 4.86218 8.04943 7.46716 5.36141 8.18158L4.28914 8.46527L1.81801 31.8669L1.93742 32.1547C2.91222 34.5402 3.67013 37.2363 4.26233 40.094C2.44432 41.734 0.640938 42.7073 0.599509 42.728L0 43.0448L0.207143 43.6163C3.0755 51.5287 4.93251 73.0107 5.70261 83.6503L5.70748 472.306C4.93738 482.931 3.08038 504.463 0.207143 512.384L0 512.957L0.599509 513.274C0.640938 513.293 2.44188 514.26 4.2672 515.887C3.67501 518.751 2.91466 521.456 1.93742 523.845L1.81801 524.135L4.28914 547.537L5.36141 547.818C8.04943 548.533 15.0315 551.14 15.0315 554.577V556H264.969V554.577C264.969 551.14 271.951 548.533 274.641 547.818L275.711 547.537L278.182 524.135L278.063 523.845C277.09 521.462 276.33 518.764 275.738 515.906C277.556 514.266 279.359 513.293 279.4 513.274L280 512.955L279.793 512.384C276.924 504.473 275.068 482.989 274.297 472.348ZM270.479 525.036C270.491 525.063 270.922 525.928 271.49 527.214C271.741 529.14 271.936 533.143 270.164 537.547C267.228 544.845 260.046 550.183 249.355 553.153H30.5698C7.6059 546.804 7.85692 531.76 8.4881 527.266C9.07786 525.914 9.54333 524.978 9.57257 524.91C10.4572 521.706 9.22651 518.936 7.48648 516.784C10.852 501.108 9.13879 481.144 9.05349 480.243L9.0486 75.8642C9.13877 74.8723 10.8544 54.8709 7.47918 39.1891C9.21189 37.0189 10.4304 34.2192 9.52382 30.9641C9.51163 30.9371 9.07785 30.0695 8.51002 28.7856C8.25901 26.8619 8.06407 22.8591 9.83577 18.4525C12.7748 11.1552 19.9542 5.81677 30.6478 2.84729H249.43C272.394 9.19623 272.143 24.2403 271.512 28.7338C270.922 30.086 270.457 31.022 270.427 31.0924C269.543 34.2958 270.773 37.0645 272.516 39.216C269.148 54.8937 270.861 74.8557 270.947 75.7565L270.951 480.138C270.861 481.128 269.146 501.129 272.521 516.813C270.791 518.983 269.572 521.783 270.479 525.036ZM277.853 43.7178C276.15 48.8346 274.824 58.3436 273.873 67.399C273.695 60.6234 273.815 50.7604 275.37 42.0032C276.374 42.7963 277.288 43.3802 277.853 43.7178ZM272.158 31.5749C272.243 31.4051 273.288 29.3177 274.273 26.7335L274.777 31.5148C274.102 33.2129 273.535 35.0496 273.045 36.9672C272.107 35.3892 271.612 33.5607 272.158 31.5749ZM272.572 10.5878L273.808 22.3041C273.559 23.3126 273.225 24.3645 272.86 25.3751C272.782 23.3333 272.399 20.809 271.315 18.1191C269.309 13.1328 264.452 6.81488 252.954 2.84729H261.817C263.065 7.20624 269.801 9.7243 272.572 10.5878ZM18.1825 2.84729H27.0337C10.4572 8.56464 7.43043 19.2891 7.18186 25.4848C6.80168 24.4412 6.45076 23.3499 6.19244 22.3041L7.42799 10.5878C10.1989 9.7243 16.9372 7.20624 18.1825 2.84729ZM5.2225 31.5148L5.72696 26.7335C6.70177 29.2929 7.73018 31.3409 7.79355 31.4485C8.34918 33.4634 7.8691 35.3147 6.9406 36.9092C6.45563 35.0123 5.89024 33.1942 5.2225 31.5148ZM4.62788 41.997C6.18269 50.7418 6.30454 60.5986 6.12664 67.3948C5.17377 58.3415 3.85046 48.8346 2.147 43.7178C2.71482 43.3802 3.62871 42.7943 4.62788 41.997ZM2.147 512.282C3.85046 507.165 5.1762 497.659 6.12664 488.603C6.30454 495.377 6.18513 505.242 4.63032 513.997C3.62871 513.204 2.71482 512.618 2.147 512.282ZM7.8423 524.425C7.757 524.597 6.71152 526.682 5.72696 529.267L5.2225 524.487C5.89755 522.789 6.46783 520.955 6.95523 519.037C7.89591 520.615 8.38819 522.441 7.8423 524.425ZM7.42799 545.412L6.19244 533.698C6.44101 532.692 6.77732 531.64 7.14043 530.627C7.21842 532.671 7.60103 535.191 8.6855 537.881C10.6912 542.871 15.5481 549.185 27.0459 553.153H18.1825C16.9372 548.794 10.1989 546.276 7.42799 545.412ZM261.817 553.153H252.966C269.543 547.437 272.57 536.711 272.821 530.517C273.198 531.561 273.549 532.65 273.808 533.696L272.572 545.412C269.801 546.276 263.065 548.794 261.817 553.153ZM274.777 524.487L274.273 529.267C273.298 526.705 272.27 524.663 272.209 524.554C271.651 522.537 272.131 520.687 273.059 519.091C273.544 520.988 274.11 522.806 274.777 524.487ZM275.372 514.003C273.817 505.26 273.695 495.403 273.873 488.607C274.826 497.661 276.15 507.165 277.853 512.282C277.288 512.62 276.374 513.206 275.372 514.003Z" fill="black"/>
</svg>
