<svg width="104" height="44" viewBox="0 0 104 44" fill="none" xmlns="http://www.w3.org/2000/svg">
<path d="M87.7512 44.0001H16.2488L0 27.1476L0.00237703 16.8448L16.2441 0.000121819H87.7607L103.998 16.8448L104 27.1476L87.7512 44.0001ZM17.5402 41.7953H86.4598L101.324 26.3793L101.322 17.6131L86.4693 2.20492H17.5355L2.67801 17.6131L2.67563 26.3793L17.5402 41.7953Z" fill="black"/>
<path d="M22.8323 44L7 27.7966L8.16765 27L24 43.2034L22.8323 44Z" fill="black"/>
<path d="M8.15835 17L7 16.1997L22.8416 -4.08126e-07L24 0.800322L8.15835 17Z" fill="black"/>
<path d="M6.76793 31L6.03586 30.3444C7.38795 27.9056 8.10508 25.0347 8.10508 22.0388C8.10508 19.0145 7.376 16.1172 6 13.6594L6.73058 13C8.21564 15.651 9 18.7777 9 22.0388C9 25.2697 8.22908 28.3679 6.76793 31Z" fill="black"/>
<path d="M97 21.4987C97.0041 20.123 96.1036 19 95.001 19C93.8943 18.9975 93.0041 20.123 93 21.4987C93 22.8795 93.8943 24 95.001 24C96.1036 24 97 22.8795 97 21.4987Z" fill="black"/>
<path d="M11 21.999C11.0041 20.8984 10.1036 20 9.00101 20C7.89433 19.998 7.00408 20.8984 7 21.999C7 23.1036 7.89433 24 9.00101 24C10.1036 24 11 23.1036 11 21.999Z" fill="black"/>
<path d="M81.1582 44L80 43.2002L95.8418 27L97 27.7998L81.1582 44Z" fill="black"/>
<path d="M95.8423 17L80 0.801212L81.1577 8.24471e-07L97 16.1988L95.8423 17Z" fill="black"/>
<path d="M97.2317 31C95.7713 28.3698 95 25.2716 95 22.0388C95 18.7758 95.7833 15.651 97.2691 13L98 13.6594C96.6248 16.1172 95.8954 19.0145 95.8954 22.0388C95.8954 25.0366 96.6114 27.9075 97.9641 30.3444L97.2317 31Z" fill="black"/>
</svg>
